<?xml version="1.0" encoding="UTF-8"?>
<svg xmlns="http://www.w3.org/2000/svg" xmlns:xlink="http://www.w3.org/1999/xlink" viewBox="172.680 182.520 239.400 212.280">
<defs>
<g>
<g id="glyph-0-0">
<path d="M 9.703125 -10.84375 C 9.703125 -12.375 8.34375 -13.53125 6.640625 -13.53125 L 1.828125 -13.53125 L 1.828125 0 L 8.265625 0 C 10.9375 0 12.359375 -2.03125 12.359375 -4.28125 C 12.359375 -6.375 11.046875 -8.40625 8.6875 -8.640625 C 9.421875 -9.15625 9.703125 -10.09375 9.703125 -10.84375 Z M 2.53125 -12.859375 L 6.546875 -12.859375 C 7.921875 -12.859375 9.015625 -11.984375 9.015625 -10.765625 C 9.015625 -9.921875 8.5625 -8.6875 7.21875 -8.6875 L 2.53125 -8.6875 Z M 2.53125 -0.671875 L 2.53125 -8.0625 L 8.09375 -8.0625 C 10.421875 -8.0625 11.609375 -6.21875 11.609375 -4.3125 C 11.609375 -2.390625 10.421875 -0.671875 8.09375 -0.671875 Z M 2.53125 -0.671875 "/>
</g>
<g id="glyph-0-1">
</g>
<g id="glyph-0-2">
<path d="M 11.203125 0 L 12.09375 0 L 8.46875 -4.875 C 10.453125 -5.359375 11.71875 -6.734375 11.71875 -9.203125 C 11.71875 -11.453125 10.515625 -13.53125 7.015625 -13.53125 L 1.828125 -13.53125 L 1.828125 0 L 2.53125 0 L 2.53125 -4.65625 L 6.53125 -4.65625 C 6.921875 -4.65625 7.34375 -4.6875 7.734375 -4.71875 Z M 2.53125 -12.859375 L 6.984375 -12.859375 C 9.9375 -12.859375 10.96875 -11.109375 10.96875 -9.1875 C 10.96875 -6.453125 9.15625 -5.3125 6.5 -5.3125 L 2.53125 -5.3125 Z M 2.53125 -12.859375 "/>
</g>
<g id="glyph-0-3">
<path d="M 12.4375 0 L 13.1875 0 L 7.09375 -13.53125 L 6.5625 -13.53125 L 0.453125 0 L 1.234375 0 L 2.953125 -3.921875 L 10.6875 -3.921875 Z M 6.8125 -12.65625 L 10.4375 -4.53125 L 3.21875 -4.53125 Z M 6.8125 -12.65625 "/>
</g>
<g id="glyph-0-4">
<path d="M 12.203125 -13.53125 L 12.203125 -1.359375 L 2.296875 -13.53125 L 1.828125 -13.53125 L 1.828125 0 L 2.53125 0 L 2.53125 -12.171875 L 12.453125 0 L 12.90625 0 L 12.90625 -13.53125 Z M 12.203125 -13.53125 "/>
</g>
<g id="glyph-0-5">
<path d="M 12.796875 -6.75 C 12.796875 -10.5 9.75 -13.53125 5.984375 -13.53125 L 1.828125 -13.53125 L 1.828125 0 L 6.421875 0 C 9.984375 -0.234375 12.796875 -3.171875 12.796875 -6.75 Z M 2.53125 -0.671875 L 2.53125 -12.859375 L 5.984375 -12.859375 C 9.34375 -12.859375 12.0625 -10.125 12.0625 -6.75 C 12.0625 -3.546875 9.5 -0.9375 6.375 -0.671875 Z M 2.53125 -0.671875 "/>
</g>
<g id="glyph-0-6">
<path d="M 8.234375 -13.578125 C 4.296875 -13.578125 1.109375 -10.515625 1.109375 -6.75 C 1.109375 -3 4.296875 0.078125 8.234375 0.078125 C 12.171875 0.078125 15.328125 -3 15.328125 -6.75 C 15.328125 -10.515625 12.171875 -13.578125 8.234375 -13.578125 Z M 8.234375 -0.640625 C 4.71875 -0.640625 1.84375 -3.375 1.84375 -6.75 C 1.84375 -10.125 4.71875 -12.890625 8.234375 -12.890625 C 11.765625 -12.890625 14.609375 -10.125 14.609375 -6.75 C 14.609375 -3.375 11.765625 -0.640625 8.234375 -0.640625 Z M 8.234375 -0.640625 "/>
</g>
<g id="glyph-0-7">
<path d="M 5.96875 -7 L 12.015625 -13.53125 L 11.09375 -13.53125 L 2.53125 -4.34375 L 2.53125 -13.53125 L 1.828125 -13.53125 L 1.828125 0 L 2.53125 0 L 2.53125 -3.3125 L 5.46875 -6.46875 L 11.203125 0 L 12.1875 0 Z M 5.96875 -7 "/>
</g>
<g id="glyph-1-0">
<path d="M 5.1875 -2.875 L 5.1875 -16.921875 L 1.75 -16.921875 L 1.75 0 L 13.890625 0 L 13.890625 -2.875 Z M 5.1875 -2.875 "/>
</g>
<g id="glyph-1-1">
<path d="M 10.0625 -17.09375 C 5.09375 -17.09375 1.0625 -13.21875 1.0625 -8.453125 C 1.0625 -3.671875 5.09375 0.1875 10.0625 0.1875 C 15.046875 0.1875 19.0625 -3.671875 19.0625 -8.453125 C 19.0625 -13.21875 15.046875 -17.09375 10.0625 -17.09375 Z M 10.0625 -3.03125 C 7.03125 -3.03125 4.578125 -5.453125 4.578125 -8.453125 C 4.578125 -11.421875 7.03125 -13.875 10.0625 -13.875 C 13.078125 -13.875 15.546875 -11.421875 15.546875 -8.453125 C 15.546875 -5.453125 13.078125 -3.03125 10.0625 -3.03125 Z M 10.0625 -3.03125 "/>
</g>
<g id="glyph-1-2">
<path d="M 9.703125 -8.46875 L 9.703125 -5.59375 L 13.984375 -5.59375 L 13.984375 -4.015625 C 12.90625 -3.28125 11.5625 -2.859375 10.0625 -2.859375 C 7.03125 -2.859375 4.578125 -5.296875 4.578125 -8.453125 C 4.578125 -11.421875 7.03125 -13.875 10.0625 -13.875 C 11.90625 -13.875 13.53125 -13.265625 14.65625 -12.265625 L 16.828125 -14.65625 C 15.1875 -16.15625 12.890625 -17.09375 10.0625 -17.09375 C 5.109375 -17.09375 1.078125 -13.21875 1.078125 -8.453125 C 1.078125 -3.671875 5.109375 0.1875 10.0625 0.1875 C 12.953125 0.1875 15.546875 -0.765625 17.421875 -2.28125 L 17.421875 -8.46875 Z M 9.703125 -8.46875 "/>
</g>
<g id="glyph-1-3">
<path d="M 15.078125 -16.921875 L 0.84375 -16.921875 L 0.84375 -13.9375 L 6.21875 -13.9375 L 6.21875 0 L 9.671875 0 L 9.671875 -13.9375 L 15.078125 -13.9375 Z M 15.078125 -16.921875 "/>
</g>
<g id="glyph-1-4">
<path d="M 5.28125 -16.921875 L 1.828125 -16.921875 L 1.828125 0 L 5.28125 0 Z M 5.28125 -16.921875 "/>
</g>
<g id="glyph-1-5">
<path d="M 1.75 -16.921875 L 1.75 0 L 5.1875 0 L 5.1875 -4.34375 L 8.046875 -4.34375 C 12.34375 -4.34375 15.34375 -6.1875 15.34375 -10.828125 C 15.34375 -13.984375 13.65625 -16.921875 8.71875 -16.921875 Z M 5.1875 -7.203125 L 5.1875 -13.9375 L 8.15625 -13.9375 C 10.828125 -13.9375 11.734375 -12.3125 11.734375 -10.5625 C 11.734375 -8.5625 10.4375 -7.203125 7.703125 -7.203125 Z M 5.1875 -7.203125 "/>
</g>
<g id="glyph-2-0">
</g>
<g id="glyph-2-1">
<path d="M 9.59375 -10.296875 L 1.125 -10.296875 L 1.125 -7.171875 L 9.59375 -7.171875 Z M 9.59375 -10.296875 "/>
</g>
<g id="glyph-2-2">
<path d="M 18.5625 -9.25 C 18.5625 -14.375 14.390625 -18.515625 9.25 -18.515625 L 1.921875 -18.515625 L 1.921875 0 L 9.84375 0 C 14.703125 0 18.5625 -4.328125 18.5625 -9.25 Z M 5.5625 -3.4375 L 5.5625 -15.078125 L 9.25 -15.078125 C 12.34375 -15.078125 14.859375 -12.453125 14.859375 -9.25 C 14.859375 -6.140625 12.46875 -3.4375 9.53125 -3.4375 Z M 5.5625 -3.4375 "/>
</g>
<g id="glyph-2-3">
<path d="M 5.5625 -3.25 L 5.5625 -7.40625 L 13.953125 -7.40625 L 13.953125 -10.5625 L 5.5625 -10.5625 L 5.5625 -15.265625 L 15.578125 -15.265625 L 15.578125 -18.515625 L 1.921875 -18.515625 L 1.921875 0 L 16.125 0 L 16.125 -3.25 Z M 5.5625 -3.25 "/>
</g>
<g id="glyph-2-4">
<path d="M 19.09375 -18.515625 L 11.421875 -7.90625 L 3.75 -18.515625 L 1.921875 -18.515625 L 1.921875 0 L 5.671875 0 L 5.671875 -10.25 L 11.421875 -2.203125 L 17.15625 -10.25 L 17.15625 0 L 20.9375 0 L 20.9375 -18.515625 Z M 19.09375 -18.515625 "/>
</g>
<g id="glyph-2-5">
<path d="M 10.140625 -9.375 L 18.234375 -18.515625 L 13.6875 -18.515625 L 5.5625 -9.609375 L 5.5625 -18.515625 L 1.921875 -18.515625 L 1.921875 0 L 5.5625 0 L 5.5625 -4.203125 L 7.703125 -6.46875 L 13.53125 0 L 18.46875 0 Z M 10.140625 -9.375 "/>
</g>
<g id="glyph-2-6">
<path d="M 13.390625 0 L 17.890625 0 L 13.578125 -5.515625 C 16.015625 -6.5625 17.328125 -8.671875 17.328125 -11.84375 C 17.328125 -15.3125 15.5 -18.515625 10.09375 -18.515625 L 1.921875 -18.515625 L 1.921875 0 L 5.671875 0 L 5.671875 -4.75 L 9.109375 -4.75 C 9.34375 -4.75 9.609375 -4.75 9.828125 -4.78125 Z M 5.671875 -15.265625 L 9.484375 -15.265625 C 12.390625 -15.265625 13.390625 -13.46875 13.390625 -11.5625 C 13.390625 -9.375 11.984375 -7.859375 8.984375 -7.859375 L 5.671875 -7.859375 Z M 5.671875 -15.265625 "/>
</g>
<g id="glyph-2-7">
<path d="M 15.890625 0 L 19.859375 0 L 11 -18.515625 L 9.140625 -18.515625 L 0.3125 0 L 4.28125 0 L 5.9375 -3.75 L 14.203125 -3.75 Z M 10.0625 -13 L 12.875 -6.875 L 7.28125 -6.875 Z M 10.0625 -13 "/>
</g>
<g id="glyph-2-8">
<path d="M 10.953125 -3.328125 C 7.71875 -3.328125 5.0625 -5.75 5.0625 -9.25 C 5.0625 -12.796875 7.71875 -15.15625 10.953125 -15.15625 C 12.890625 -15.15625 14.625 -14.203125 15.6875 -12.71875 L 18.59375 -15.1875 C 16.78125 -17.328125 14.046875 -18.734375 10.953125 -18.734375 C 5.5625 -18.734375 1.1875 -14.46875 1.1875 -9.25 C 1.1875 -4.015625 5.5625 0.203125 10.953125 0.203125 C 14.046875 0.203125 16.78125 -1.15625 18.59375 -3.3125 L 15.6875 -5.78125 C 14.625 -4.28125 12.890625 -3.328125 10.953125 -3.328125 Z M 10.953125 -3.328125 "/>
</g>
<g id="glyph-2-9">
<path d="M 5.78125 -18.515625 L 2 -18.515625 L 2 0 L 5.78125 0 Z M 5.78125 -18.515625 "/>
</g>
<g id="glyph-2-10">
<path d="M 9.75 -18.515625 L 9.75 -6.484375 C 9.75 -4.703125 8.609375 -3.3125 6.78125 -3.3125 C 5.09375 -3.3125 3.9375 -4.40625 3.59375 -5.96875 L 0.375 -5.640625 C 0.703125 -2.359375 3.5 0.203125 6.875 0.203125 C 11.40625 0.203125 13.53125 -2.96875 13.53125 -7.5625 L 13.53125 -18.515625 Z M 9.75 -18.515625 "/>
</g>
<g id="glyph-3-0">
<path d="M 3.75 -3.84375 C 3.75 -4.453125 3.265625 -4.9375 2.6875 -4.9375 L 0.515625 -4.9375 L 0.515625 0 L 3.234375 0 C 4.203125 0 4.71875 -0.734375 4.71875 -1.5625 C 4.71875 -2.34375 4.171875 -3.015625 3.390625 -3.109375 C 3.625 -3.25 3.75 -3.5625 3.75 -3.84375 Z M 1.484375 -4.0625 L 2.3125 -4.0625 C 2.65625 -4.0625 2.859375 -3.875 2.859375 -3.640625 C 2.859375 -3.4375 2.71875 -3.21875 2.390625 -3.21875 L 1.484375 -3.21875 Z M 1.484375 -0.875 L 1.484375 -2.46875 L 2.6875 -2.46875 C 3.359375 -2.46875 3.65625 -2.0625 3.65625 -1.671875 C 3.65625 -1.203125 3.375 -0.875 2.6875 -0.875 Z M 1.484375 -0.875 "/>
</g>
<g id="glyph-3-1">
<path d="M 2.578125 -3.203125 C 2.015625 -3.203125 1.53125 -3 1.328125 -2.734375 C 1.328125 -3.40625 1.703125 -4.125 2.484375 -4.125 C 2.96875 -4.125 3.359375 -3.96875 3.671875 -3.734375 L 4.109375 -4.46875 C 3.65625 -4.78125 3.15625 -4.984375 2.421875 -4.984375 C 1.265625 -4.984375 0.34375 -4.234375 0.34375 -2.15625 C 0.34375 -0.875 1.21875 0.0625 2.3125 0.0625 C 3.4375 0.0625 4.328125 -0.5625 4.328125 -1.609375 C 4.328125 -2.75 3.375 -3.203125 2.578125 -3.203125 Z M 2.34375 -2.453125 C 2.890625 -2.453125 3.359375 -2.140625 3.359375 -1.625 C 3.359375 -1.125 2.890625 -0.796875 2.3125 -0.796875 C 1.78125 -0.796875 1.34375 -1.1875 1.34375 -1.625 C 1.34375 -2.140625 1.8125 -2.453125 2.34375 -2.453125 Z M 2.34375 -2.453125 "/>
</g>
<g id="glyph-3-2">
<path d="M 2.0625 -1.125 L 2.9375 0 L 4 0 L 2.609375 -1.953125 L 3.984375 -3.796875 L 2.890625 -3.796875 L 2.0625 -2.6875 L 1.21875 -3.796875 L 0.140625 -3.796875 L 1.515625 -1.953125 L 0.125 0 L 1.171875 0 Z M 2.0625 -1.125 "/>
</g>
<g id="glyph-4-0">
<path d="M 3.828125 -0.625 L 0.84375 -7.046875 L 0.4375 -7.046875 L 3.71875 0 L 3.9375 0 L 7.21875 -7.046875 L 6.8125 -7.046875 Z M 3.828125 -0.625 "/>
</g>
<g id="glyph-4-1">
<path d="M 1.3125 -0.34375 L 1.3125 -3.25 L 4.96875 -3.25 L 4.96875 -3.59375 L 1.3125 -3.59375 L 1.3125 -6.703125 L 5.59375 -6.703125 L 5.59375 -7.046875 L 0.953125 -7.046875 L 0.953125 0 L 5.796875 0 L 5.796875 -0.34375 Z M 1.3125 -0.34375 "/>
</g>
<g id="glyph-4-2">
<path d="M 5.84375 0 L 6.296875 0 L 4.40625 -2.546875 C 5.453125 -2.796875 6.109375 -3.515625 6.109375 -4.796875 C 6.109375 -5.96875 5.484375 -7.046875 3.65625 -7.046875 L 0.953125 -7.046875 L 0.953125 0 L 1.3125 0 L 1.3125 -2.4375 L 3.40625 -2.4375 C 3.609375 -2.4375 3.828125 -2.4375 4.03125 -2.453125 Z M 1.3125 -6.703125 L 3.640625 -6.703125 C 5.1875 -6.703125 5.71875 -5.796875 5.71875 -4.796875 C 5.71875 -3.359375 4.765625 -2.765625 3.390625 -2.765625 L 1.3125 -2.765625 Z M 1.3125 -6.703125 "/>
</g>
<g id="glyph-4-3">
<path d="M 6.0625 -7.046875 L 0.5625 -7.046875 L 0.5625 -6.703125 L 3.125 -6.703125 L 3.125 0 L 3.5 0 L 3.5 -6.703125 L 6.0625 -6.703125 Z M 6.0625 -7.046875 "/>
</g>
<g id="glyph-4-4">
<path d="M 1.328125 -7.046875 L 0.953125 -7.046875 L 0.953125 0 L 1.328125 0 Z M 1.328125 -7.046875 "/>
</g>
<g id="glyph-4-5">
<path d="M 3.109375 -3.65625 L 6.265625 -7.046875 L 5.78125 -7.046875 L 1.3125 -2.265625 L 1.3125 -7.046875 L 0.953125 -7.046875 L 0.953125 0 L 1.3125 0 L 1.3125 -1.734375 L 2.84375 -3.375 L 5.84375 0 L 6.34375 0 Z M 3.109375 -3.65625 "/>
</g>
<g id="glyph-4-6">
<path d="M 6.484375 0 L 6.875 0 L 3.703125 -7.046875 L 3.421875 -7.046875 L 0.234375 0 L 0.640625 0 L 1.546875 -2.046875 L 5.5625 -2.046875 Z M 3.546875 -6.59375 L 5.4375 -2.359375 L 1.6875 -2.359375 Z M 3.546875 -6.59375 "/>
</g>
<g id="glyph-4-7">
<path d="M 1.3125 -0.34375 L 1.3125 -7.046875 L 0.953125 -7.046875 L 0.953125 0 L 5.46875 0 L 5.46875 -0.34375 Z M 1.3125 -0.34375 "/>
</g>
<g id="glyph-4-8">
<path d="M 6.359375 -7.046875 L 6.359375 -0.703125 L 1.203125 -7.046875 L 0.953125 -7.046875 L 0.953125 0 L 1.3125 0 L 1.3125 -6.34375 L 6.484375 0 L 6.734375 0 L 6.734375 -7.046875 Z M 6.359375 -7.046875 "/>
</g>
</g>
</defs>
<path fill-rule="nonzero" fill="rgb(96.862793%, 58.039856%, 11.764526%)" fill-opacity="1" d="M 0 118.046875 L 202.027344 118.046875 L 202.027344 0 L 0 0 Z M 0 118.046875 "/>
<g fill="rgb(73.725891%, 74.510193%, 75.294495%)" fill-opacity="1">
<use xlink:href="#glyph-0-0" x="217.5156" y="804.4828"/>
<use xlink:href="#glyph-0-1" x="230.850287" y="804.4828"/>
<use xlink:href="#glyph-0-2" x="237.028372" y="804.4828"/>
<use xlink:href="#glyph-0-1" x="249.864208" y="804.4828"/>
<use xlink:href="#glyph-0-3" x="256.042293" y="804.4828"/>
<use xlink:href="#glyph-0-1" x="269.703152" y="804.4828"/>
<use xlink:href="#glyph-0-4" x="275.881237" y="804.4828"/>
<use xlink:href="#glyph-0-1" x="290.616546" y="804.4828"/>
<use xlink:href="#glyph-0-5" x="296.794631" y="804.4828"/>
<use xlink:href="#glyph-0-1" x="310.704916" y="804.4828"/>
<use xlink:href="#glyph-0-0" x="316.883001" y="804.4828"/>
<use xlink:href="#glyph-0-1" x="330.217688" y="804.4828"/>
<use xlink:href="#glyph-0-6" x="336.395774" y="804.4828"/>
<use xlink:href="#glyph-0-1" x="352.857876" y="804.4828"/>
<use xlink:href="#glyph-0-6" x="359.035962" y="804.4828"/>
<use xlink:href="#glyph-0-1" x="375.498064" y="804.4828"/>
<use xlink:href="#glyph-0-7" x="381.67615" y="804.4828"/>
</g>
<g fill="rgb(100%, 100%, 100%)" fill-opacity="1">
<use xlink:href="#glyph-1-0" x="34.3594" y="65.0463"/>
</g>
<g fill="rgb(100%, 100%, 100%)" fill-opacity="1">
<use xlink:href="#glyph-1-1" x="47.9914" y="65.0463"/>
<use xlink:href="#glyph-1-2" x="67.9114" y="65.0463"/>
<use xlink:href="#glyph-1-1" x="86.3674" y="65.0463"/>
</g>
<g fill="rgb(100%, 100%, 100%)" fill-opacity="1">
<use xlink:href="#glyph-1-3" x="105.8074" y="65.0463"/>
</g>
<g fill="rgb(100%, 100%, 100%)" fill-opacity="1">
<use xlink:href="#glyph-1-4" x="121.645" y="65.0463"/>
</g>
<g fill="rgb(100%, 100%, 100%)" fill-opacity="1">
<use xlink:href="#glyph-1-5" x="128.725" y="65.0463"/>
</g>
<path fill="none" stroke-width="1" stroke-linecap="butt" stroke-linejoin="miter" stroke="rgb(65.490723%, 66.275024%, 67.451477%)" stroke-opacity="1" stroke-miterlimit="10" d="M 0.00136875 0.00005625 L -457.334569 0.00005625 " transform="matrix(1, 0, 0, -1, 546.0416, 440.5899)"/>
<path fill-rule="nonzero" fill="rgb(96.862793%, 58.039856%, 11.764526%)" fill-opacity="1" d="M 212.898438 284.371094 C 211.769531 284.371094 210.761719 283.578125 210.53125 282.429688 C 206.765625 263.738281 209.355469 244.910156 218.019531 227.980469 C 218.628906 226.792969 220.085938 226.320312 221.277344 226.929688 C 222.464844 227.539062 222.933594 228.996094 222.324219 230.1875 C 214.164062 246.132812 211.726562 263.867188 215.273438 281.46875 C 215.539062 282.78125 214.6875 284.058594 213.378906 284.320312 C 213.21875 284.351562 213.058594 284.371094 212.898438 284.371094 "/>
<path fill-rule="nonzero" fill="rgb(96.862793%, 58.039856%, 11.764526%)" fill-opacity="1" d="M 226.871094 220.617188 C 226.375 220.617188 225.878906 220.464844 225.449219 220.148438 C 224.367188 219.359375 224.132812 217.847656 224.917969 216.765625 C 237.226562 199.898438 255.277344 188.332031 275.753906 184.203125 C 293.921875 180.535156 312.300781 182.90625 328.894531 191.058594 C 330.09375 191.644531 330.589844 193.097656 330 194.296875 C 329.414062 195.496094 327.964844 195.992188 326.765625 195.402344 C 311.132812 187.726562 293.824219 185.492188 276.710938 188.945312 C 257.421875 192.835938 240.417969 203.730469 228.828125 219.621094 C 228.355469 220.269531 227.617188 220.617188 226.871094 220.617188 "/>
<path fill-rule="nonzero" fill="rgb(96.862793%, 58.039856%, 11.764526%)" fill-opacity="1" d="M 371.542969 252.363281 C 370.417969 252.363281 369.40625 251.566406 369.175781 250.417969 C 365.179688 230.589844 353.867188 213.269531 337.328125 201.65625 C 336.234375 200.886719 335.96875 199.378906 336.738281 198.285156 C 337.503906 197.191406 339.011719 196.925781 340.109375 197.691406 C 357.667969 210.023438 369.675781 228.410156 373.917969 249.460938 C 374.183594 250.773438 373.335938 252.050781 372.023438 252.3125 C 371.863281 252.34375 371.703125 252.363281 371.542969 252.363281 "/>
<path fill-rule="nonzero" fill="rgb(96.862793%, 58.039856%, 11.764526%)" fill-opacity="1" d="M 373.1875 269.996094 L 373.15625 269.996094 C 371.804688 269.96875 370.742188 268.863281 370.769531 267.527344 C 370.878906 261.816406 370.355469 256.058594 369.21875 250.410156 C 368.957031 249.097656 369.804688 247.824219 371.113281 247.558594 C 372.421875 247.292969 373.699219 248.144531 373.960938 249.453125 C 375.167969 255.445312 375.722656 261.558594 375.605469 267.621094 C 375.582031 268.941406 374.503906 269.996094 373.1875 269.996094 "/>
<path fill-rule="nonzero" fill="rgb(96.862793%, 58.039856%, 11.764526%)" fill-opacity="1" d="M 213.71875 287.816406 C 212.632812 287.816406 211.644531 287.078125 211.371094 285.976562 C 211.082031 284.808594 210.816406 283.613281 210.574219 282.417969 C 210.308594 281.109375 211.15625 279.832031 212.46875 279.566406 C 213.777344 279.304688 215.050781 280.152344 215.316406 281.460938 C 215.542969 282.585938 215.796875 283.714844 216.070312 284.816406 C 216.386719 286.113281 215.597656 287.421875 214.300781 287.746094 C 214.105469 287.792969 213.910156 287.816406 213.71875 287.816406 "/>
<path fill-rule="nonzero" fill="rgb(96.862793%, 58.039856%, 11.764526%)" fill-opacity="1" d="M 271.332031 346.597656 C 270.765625 346.597656 270.195312 346.398438 269.738281 345.996094 C 268.734375 345.113281 268.636719 343.582031 269.515625 342.578125 C 287.972656 321.5625 295.394531 293.800781 289.875 266.417969 C 289.609375 265.109375 290.457031 263.832031 291.769531 263.566406 C 293.074219 263.300781 294.355469 264.152344 294.617188 265.460938 C 300.4375 294.335938 292.613281 323.613281 273.152344 345.773438 C 272.671875 346.320312 272.003906 346.597656 271.332031 346.597656 "/>
<path fill-rule="nonzero" fill="rgb(96.862793%, 58.039856%, 11.764526%)" fill-opacity="1" d="M 260.871094 343.011719 C 260.265625 343.011719 259.65625 342.78125 259.183594 342.324219 C 258.226562 341.390625 258.207031 339.859375 259.140625 338.902344 C 266.574219 331.277344 272.300781 322.382812 276.167969 312.464844 C 276.65625 311.222656 278.058594 310.605469 279.300781 311.089844 C 280.546875 311.578125 281.160156 312.980469 280.675781 314.226562 C 276.570312 324.75 270.492188 334.1875 262.605469 342.28125 C 262.132812 342.769531 261.5 343.011719 260.871094 343.011719 "/>
<path fill-rule="nonzero" fill="rgb(96.862793%, 58.039856%, 11.764526%)" fill-opacity="1" d="M 282.660156 348.78125 C 282.140625 348.78125 281.613281 348.613281 281.171875 348.265625 C 280.121094 347.441406 279.933594 345.921875 280.757812 344.867188 C 298.5625 322.070312 305.5 292.746094 299.792969 264.417969 L 299.648438 263.714844 C 298.515625 259.921875 294.648438 257.542969 290.695312 258.339844 C 286.859375 259.113281 284.253906 262.617188 284.492188 266.417969 L 284.699219 267.460938 C 286.984375 278.78125 286.921875 290.203125 284.523438 301.40625 C 284.242188 302.710938 282.957031 303.546875 281.652344 303.265625 C 280.34375 302.984375 279.511719 301.699219 279.792969 300.390625 C 281.890625 290.597656 282.089844 280.628906 280.386719 270.714844 L 280.347656 270.722656 L 279.886719 268.429688 C 278.515625 261.625 282.933594 254.964844 289.738281 253.59375 C 296.539062 252.21875 303.191406 256.640625 304.566406 263.453125 L 304.992188 265.574219 L 304.941406 265.589844 C 310.167969 294.640625 302.800781 324.507812 284.566406 347.847656 C 284.09375 348.460938 283.378906 348.78125 282.660156 348.78125 "/>
<path fill-rule="nonzero" fill="rgb(96.862793%, 58.039856%, 11.764526%)" fill-opacity="1" d="M 251.3125 338.214844 C 250.667969 338.214844 250.023438 337.957031 249.546875 337.445312 C 248.632812 336.472656 248.683594 334.941406 249.660156 334.027344 C 265.855469 318.867188 273.753906 296.734375 270.785156 274.824219 C 270.605469 273.5 271.53125 272.28125 272.855469 272.101562 C 274.179688 271.921875 275.398438 272.851562 275.578125 274.175781 C 278.757812 297.636719 270.304688 321.332031 252.964844 337.5625 C 252.5 337.996094 251.90625 338.214844 251.3125 338.214844 "/>
<path fill-rule="nonzero" fill="rgb(96.862793%, 58.039856%, 11.764526%)" fill-opacity="1" d="M 314.296875 286.175781 C 312.960938 286.175781 311.878906 285.09375 311.875 283.761719 C 311.855469 276.644531 311.128906 269.464844 309.707031 262.417969 L 309.523438 261.492188 C 308.425781 257.203125 305.816406 253.527344 302.109375 251.058594 C 298.132812 248.417969 293.375 247.484375 288.695312 248.425781 C 281.679688 249.84375 276.203125 255.285156 274.738281 262.296875 C 274.464844 263.605469 273.1875 264.445312 271.878906 264.171875 C 270.570312 263.898438 269.730469 262.617188 270.003906 261.308594 C 271.859375 252.398438 278.824219 245.480469 287.738281 243.679688 C 293.683594 242.480469 299.734375 243.667969 304.785156 247.027344 C 309.835938 250.382812 313.273438 255.507812 314.472656 261.453125 L 314.886719 263.503906 L 314.84375 263.519531 C 316.066406 270.210938 316.695312 277.007812 316.714844 283.746094 C 316.71875 285.082031 315.636719 286.167969 314.300781 286.175781 Z M 314.296875 286.175781 "/>
<path fill-rule="nonzero" fill="rgb(96.862793%, 58.039856%, 11.764526%)" fill-opacity="1" d="M 294.808594 349.296875 C 294.335938 349.296875 293.863281 349.15625 293.445312 348.871094 C 292.339844 348.117188 292.058594 346.609375 292.8125 345.507812 C 302.832031 330.859375 309.183594 313.851562 311.179688 296.316406 C 311.332031 294.988281 312.53125 294.035156 313.859375 294.1875 C 315.1875 294.339844 316.140625 295.535156 315.988281 296.867188 C 313.902344 315.179688 307.269531 332.945312 296.804688 348.242188 C 296.335938 348.925781 295.578125 349.296875 294.808594 349.296875 "/>
<path fill-rule="nonzero" fill="rgb(96.862793%, 58.039856%, 11.764526%)" fill-opacity="1" d="M 242.675781 332.378906 C 242 332.378906 241.324219 332.09375 240.847656 331.542969 C 239.972656 330.53125 240.082031 329.003906 241.09375 328.128906 C 256.597656 314.691406 263.917969 294.046875 260.410156 273.925781 L 260.070312 272.429688 C 256.496094 254.6875 268.011719 237.34375 285.742188 233.769531 C 288.730469 233.164062 291.777344 232.980469 294.789062 233.214844 C 296.121094 233.316406 297.117188 234.480469 297.015625 235.8125 C 296.910156 237.148438 295.753906 238.148438 294.414062 238.039062 C 291.84375 237.839844 289.25 238 286.699219 238.511719 C 271.992188 241.480469 262.300781 255.5625 264.59375 270.25 L 264.871094 271.464844 C 269.363281 293.761719 261.464844 316.878906 244.257812 331.785156 C 243.800781 332.183594 243.238281 332.378906 242.675781 332.378906 "/>
<path fill-rule="nonzero" fill="rgb(96.862793%, 58.039856%, 11.764526%)" fill-opacity="1" d="M 307.710938 347.828125 C 307.292969 347.828125 306.871094 347.722656 306.488281 347.496094 C 305.335938 346.820312 304.949219 345.335938 305.625 344.183594 C 320.445312 318.90625 325.414062 289.15625 319.625 260.417969 L 319.441406 259.511719 C 317.636719 251.867188 312.714844 245.335938 305.832031 241.492188 C 304.664062 240.84375 304.246094 239.367188 304.894531 238.203125 C 305.546875 237.03125 307.019531 236.613281 308.1875 237.265625 C 316.578125 241.945312 322.480469 250.035156 324.378906 259.453125 L 324.765625 261.367188 L 324.738281 261.378906 C 330.167969 290.691406 324.890625 320.890625 309.796875 346.632812 C 309.347656 347.402344 308.539062 347.828125 307.710938 347.828125 "/>
<path fill-rule="nonzero" fill="rgb(96.862793%, 58.039856%, 11.764526%)" fill-opacity="1" d="M 234.996094 325.609375 C 234.292969 325.609375 233.601562 325.304688 233.121094 324.722656 C 232.277344 323.6875 232.429688 322.164062 233.460938 321.316406 C 239.898438 316.039062 244.898438 309.140625 247.914062 301.367188 C 248.398438 300.125 249.796875 299.503906 251.046875 299.988281 C 252.289062 300.472656 252.90625 301.875 252.425781 303.121094 C 249.105469 311.667969 243.609375 319.253906 236.527344 325.058594 C 236.078125 325.429688 235.535156 325.609375 234.996094 325.609375 "/>
<path fill-rule="nonzero" fill="rgb(96.862793%, 58.039856%, 11.764526%)" fill-opacity="1" d="M 332.796875 307.730469 C 332.667969 307.730469 332.535156 307.722656 332.402344 307.699219 C 331.082031 307.484375 330.191406 306.238281 330.40625 304.917969 C 332.945312 289.507812 332.652344 273.863281 329.539062 258.417969 L 329.398438 257.710938 C 324.9375 237.519531 305.042969 224.496094 284.699219 228.597656 C 264.550781 232.664062 251.316406 252.050781 254.667969 272.1875 L 254.953125 273.460938 C 256.03125 278.804688 256.285156 284.238281 255.710938 289.609375 C 255.570312 290.941406 254.378906 291.90625 253.046875 291.761719 C 251.71875 291.617188 250.757812 290.425781 250.902344 289.097656 C 251.371094 284.679688 251.226562 280.214844 250.46875 275.804688 L 250.164062 274.429688 C 245.484375 251.222656 260.550781 228.535156 283.746094 223.851562 C 306.9375 219.175781 329.609375 234.25 334.289062 257.457031 L 334.589844 258.953125 L 334.578125 258.964844 C 337.527344 274.5 337.734375 290.214844 335.179688 305.703125 C 334.984375 306.890625 333.960938 307.730469 332.796875 307.730469 "/>
<path fill-rule="nonzero" fill="rgb(96.862793%, 58.039856%, 11.764526%)" fill-opacity="1" d="M 321.253906 343.949219 C 320.902344 343.949219 320.539062 343.871094 320.199219 343.703125 C 318.996094 343.117188 318.496094 341.667969 319.082031 340.464844 C 322.699219 333.042969 325.609375 325.242188 327.738281 317.289062 C 328.085938 315.996094 329.414062 315.230469 330.699219 315.578125 C 331.992188 315.921875 332.757812 317.25 332.414062 318.539062 C 330.203125 326.792969 327.183594 334.882812 323.429688 342.585938 C 323.011719 343.449219 322.152344 343.949219 321.253906 343.949219 "/>
<path fill-rule="nonzero" fill="rgb(96.862793%, 58.039856%, 11.764526%)" fill-opacity="1" d="M 335.328125 336.90625 C 335.042969 336.90625 334.75 336.855469 334.464844 336.746094 C 333.21875 336.269531 332.59375 334.871094 333.070312 333.621094 C 342.410156 309.191406 344.648438 282.679688 339.558594 256.925781 L 339.453125 256.414062 C 338.066406 249.535156 335.285156 243.195312 331.191406 237.570312 C 330.40625 236.492188 330.644531 234.976562 331.722656 234.1875 C 332.800781 233.402344 334.316406 233.640625 335.101562 234.71875 C 339.4375 240.675781 342.433594 247.355469 344.015625 254.589844 L 344.023438 254.59375 L 344.199219 255.460938 C 349.601562 282.277344 347.316406 309.902344 337.589844 335.347656 C 337.222656 336.3125 336.304688 336.90625 335.328125 336.90625 "/>
<path fill-rule="nonzero" fill="rgb(96.862793%, 58.039856%, 11.764526%)" fill-opacity="1" d="M 324.308594 229.210938 C 323.769531 229.210938 323.226562 229.03125 322.777344 228.664062 C 311.535156 219.453125 296.929688 215.816406 282.703125 218.6875 C 279.039062 219.425781 275.472656 220.582031 272.109375 222.125 C 270.894531 222.683594 269.460938 222.148438 268.902344 220.933594 C 268.347656 219.71875 268.878906 218.28125 270.09375 217.726562 C 273.796875 216.027344 277.714844 214.753906 281.746094 213.941406 C 297.402344 210.78125 313.472656 214.78125 325.839844 224.917969 C 326.875 225.765625 327.027344 227.289062 326.179688 228.324219 C 325.703125 228.90625 325.007812 229.210938 324.308594 229.210938 "/>
<path fill-rule="nonzero" fill="rgb(96.862793%, 58.039856%, 11.764526%)" fill-opacity="1" d="M 228.289062 318.011719 C 227.582031 318.011719 226.878906 317.703125 226.402344 317.109375 C 225.566406 316.066406 225.730469 314.542969 226.773438 313.703125 C 237.617188 304.988281 242.816406 291.265625 240.519531 277.636719 L 240.253906 276.429688 C 236.34375 257.027344 243.460938 237.214844 258.828125 224.730469 C 259.867188 223.886719 261.390625 224.042969 262.230469 225.082031 C 263.074219 226.121094 262.917969 227.644531 261.878906 228.488281 C 248.257812 239.554688 241.769531 256.953125 244.753906 274.164062 L 245.035156 275.460938 C 248.222656 291.265625 242.382812 307.367188 229.804688 317.480469 C 229.355469 317.835938 228.820312 318.011719 228.289062 318.011719 "/>
<path fill-rule="nonzero" fill="rgb(96.862793%, 58.039856%, 11.764526%)" fill-opacity="1" d="M 222.578125 309.617188 C 221.890625 309.617188 221.210938 309.324219 220.730469 308.761719 C 219.867188 307.738281 219.992188 306.214844 221.011719 305.347656 C 228.542969 298.964844 232.144531 289.117188 230.5625 279.433594 L 230.347656 278.429688 C 229.683594 275.140625 229.277344 271.785156 229.140625 268.449219 C 229.085938 267.109375 230.125 265.984375 231.460938 265.929688 C 232.796875 265.863281 233.921875 266.914062 233.976562 268.25 C 234.082031 270.886719 234.375 273.539062 234.839844 276.15625 L 235.121094 277.464844 C 237.484375 289.195312 233.277344 301.296875 224.140625 309.042969 C 223.683594 309.425781 223.128906 309.617188 222.578125 309.617188 "/>
<path fill-rule="nonzero" fill="rgb(96.862793%, 58.039856%, 11.764526%)" fill-opacity="1" d="M 353.113281 264.222656 C 351.9375 264.222656 350.902344 263.359375 350.726562 262.15625 C 350.398438 259.953125 350.015625 257.726562 349.589844 255.515625 L 349.359375 254.414062 C 343.007812 222.894531 312.210938 202.414062 280.707031 208.773438 C 268.964844 211.140625 258.398438 216.953125 250.148438 225.574219 C 242.085938 234.007812 236.769531 244.515625 234.78125 255.964844 C 234.554688 257.285156 233.304688 258.167969 231.984375 257.9375 C 230.667969 257.707031 229.785156 256.453125 230.015625 255.136719 C 232.167969 242.738281 237.925781 231.359375 246.65625 222.230469 C 255.589844 212.886719 267.035156 206.59375 279.75 204.027344 C 313.265625 197.265625 346.046875 218.546875 353.714844 251.664062 L 353.742188 251.667969 L 354.113281 253.460938 C 354.648438 256.109375 355.117188 258.796875 355.511719 261.445312 C 355.707031 262.769531 354.792969 264 353.472656 264.195312 C 353.351562 264.210938 353.234375 264.222656 353.113281 264.222656 "/>
<path fill-rule="nonzero" fill="rgb(96.862793%, 58.039856%, 11.764526%)" fill-opacity="1" d="M 349.667969 325.402344 C 349.460938 325.402344 349.253906 325.375 349.042969 325.316406 C 347.753906 324.972656 346.984375 323.648438 347.328125 322.355469 C 351.472656 306.800781 353.0625 290.769531 352.046875 274.707031 C 351.964844 273.371094 352.976562 272.222656 354.3125 272.136719 C 355.640625 272.0625 356.792969 273.066406 356.878906 274.402344 C 357.921875 290.988281 356.285156 307.542969 352.003906 323.601562 C 351.714844 324.683594 350.738281 325.402344 349.667969 325.402344 "/>
<path fill-rule="nonzero" fill="rgb(96.862793%, 58.039856%, 11.764526%)" fill-opacity="1" d="M 217.804688 300.195312 C 217.21875 300.195312 216.628906 299.980469 216.160156 299.550781 C 215.179688 298.640625 215.125 297.109375 216.03125 296.128906 C 219.761719 292.101562 221.441406 286.5625 220.597656 281.175781 L 220.4375 280.425781 C 216.574219 261.242188 220.40625 241.695312 231.230469 225.394531 C 242.054688 209.09375 258.574219 197.984375 277.75 194.113281 C 285.800781 192.492188 293.972656 192.21875 302.035156 193.308594 C 303.359375 193.488281 304.289062 194.707031 304.109375 196.03125 C 303.929688 197.355469 302.710938 198.289062 301.390625 198.105469 C 293.859375 197.089844 286.226562 197.34375 278.707031 198.859375 C 260.796875 202.472656 245.367188 212.847656 235.257812 228.074219 C 225.386719 242.941406 221.742188 260.695312 224.9375 278.210938 L 225.203125 279.464844 C 226.644531 286.605469 224.542969 294.066406 219.578125 299.421875 C 219.101562 299.933594 218.457031 300.195312 217.804688 300.195312 "/>
<path fill-rule="nonzero" fill="rgb(96.862793%, 58.039856%, 11.764526%)" fill-opacity="1" d="M 363.652344 306.421875 C 363.550781 306.421875 363.449219 306.417969 363.351562 306.402344 C 362.023438 306.238281 361.085938 305.027344 361.246094 303.703125 C 363.3125 287.121094 362.746094 270.347656 359.566406 253.824219 L 359.269531 252.417969 C 354.371094 228.117188 336.660156 208.320312 313.046875 200.742188 C 311.777344 200.335938 311.074219 198.972656 311.484375 197.699219 C 311.890625 196.429688 313.253906 195.726562 314.523438 196.136719 C 339.136719 204.027344 357.757812 224.328125 363.566406 249.402344 L 363.59375 249.398438 L 364.03125 251.457031 C 367.554688 268.949219 368.234375 286.730469 366.050781 304.300781 C 365.898438 305.527344 364.855469 306.421875 363.652344 306.421875 "/>
<g fill="rgb(20.783997%, 34.509277%, 58.039856%)" fill-opacity="1">
<use xlink:href="#glyph-2-0" x="183.376" y="389.5902"/>
<use xlink:href="#glyph-2-1" x="191.831591" y="389.5902"/>
<use xlink:href="#glyph-2-2" x="202.545508" y="389.5902"/>
<use xlink:href="#glyph-2-3" x="222.292727" y="389.5902"/>
<use xlink:href="#glyph-2-4" x="239.519025" y="389.5902"/>
<use xlink:href="#glyph-2-0" x="262.364877" y="389.5902"/>
<use xlink:href="#glyph-2-0" x="270.820468" y="389.5902"/>
<use xlink:href="#glyph-2-0" x="279.276059" y="389.5902"/>
</g>
<path fill-rule="nonzero" fill="rgb(96.862793%, 58.039856%, 11.764526%)" fill-opacity="1" d="M 177.761719 379.121094 C 177.953125 378 178.785156 376.464844 180.929688 376.464844 C 183.199219 376.464844 183.996094 378.03125 184.125 379.121094 Z M 180.929688 372.660156 C 176.101562 372.660156 172.710938 376.273438 172.710938 380.75 C 172.710938 385.769531 176.386719 388.871094 181.152344 388.871094 C 181.851562 388.871094 182.566406 388.804688 183.269531 388.6875 L 183.269531 384.84375 C 182.695312 384.988281 182.128906 385.066406 181.695312 385.066406 C 179.457031 385.066406 178.113281 383.757812 177.824219 382.316406 L 188.824219 382.316406 L 188.824219 381.261719 C 188.824219 376.019531 185.5 372.660156 180.929688 372.660156 "/>
<path fill-rule="nonzero" fill="rgb(96.862793%, 58.039856%, 11.764526%)" fill-opacity="1" d="M 264.671875 383.605469 C 264.480469 383.605469 264.304688 383.464844 264.265625 383.269531 C 263.617188 380.046875 264.0625 376.804688 265.554688 373.886719 C 265.660156 373.683594 265.910156 373.601562 266.117188 373.707031 C 266.320312 373.8125 266.402344 374.066406 266.296875 374.269531 C 264.890625 377.015625 264.46875 380.070312 265.082031 383.105469 C 265.128906 383.332031 264.980469 383.550781 264.753906 383.59375 C 264.726562 383.601562 264.699219 383.605469 264.671875 383.605469 "/>
<path fill-rule="nonzero" fill="rgb(96.862793%, 58.039856%, 11.764526%)" fill-opacity="1" d="M 267.078125 372.621094 C 266.996094 372.621094 266.910156 372.59375 266.835938 372.539062 C 266.648438 372.402344 266.609375 372.144531 266.742188 371.957031 C 268.863281 369.050781 271.972656 367.058594 275.5 366.347656 C 278.632812 365.714844 281.796875 366.125 284.65625 367.527344 C 284.863281 367.628906 284.949219 367.878906 284.847656 368.085938 C 284.746094 368.292969 284.496094 368.378906 284.289062 368.277344 C 281.597656 366.953125 278.613281 366.570312 275.664062 367.164062 C 272.34375 367.835938 269.414062 369.710938 267.417969 372.449219 C 267.335938 372.558594 267.207031 372.621094 267.078125 372.621094 "/>
<path fill-rule="nonzero" fill="rgb(96.862793%, 58.039856%, 11.764526%)" fill-opacity="1" d="M 292.003906 378.089844 C 291.808594 378.089844 291.636719 377.953125 291.59375 377.753906 C 290.90625 374.339844 288.957031 371.355469 286.109375 369.355469 C 285.921875 369.222656 285.875 368.960938 286.007812 368.773438 C 286.140625 368.585938 286.398438 368.539062 286.585938 368.671875 C 289.613281 370.796875 291.679688 373.964844 292.410156 377.589844 C 292.457031 377.816406 292.3125 378.035156 292.085938 378.082031 C 292.058594 378.085938 292.03125 378.089844 292.003906 378.089844 "/>
<path fill-rule="nonzero" fill="rgb(96.862793%, 58.039856%, 11.764526%)" fill-opacity="1" d="M 292.285156 381.128906 L 292.28125 381.128906 C 292.046875 381.121094 291.863281 380.933594 291.871094 380.703125 C 291.890625 379.71875 291.796875 378.726562 291.601562 377.753906 C 291.558594 377.527344 291.703125 377.308594 291.929688 377.261719 C 292.15625 377.214844 292.375 377.363281 292.417969 377.589844 C 292.628906 378.621094 292.722656 379.675781 292.703125 380.71875 C 292.699219 380.945312 292.515625 381.128906 292.285156 381.128906 "/>
<path fill-rule="nonzero" fill="rgb(96.862793%, 58.039856%, 11.764526%)" fill-opacity="1" d="M 264.8125 384.199219 C 264.628906 384.199219 264.457031 384.070312 264.410156 383.878906 C 264.359375 383.679688 264.3125 383.472656 264.273438 383.265625 C 264.226562 383.042969 264.375 382.824219 264.597656 382.777344 C 264.824219 382.730469 265.042969 382.878906 265.089844 383.101562 C 265.128906 383.296875 265.171875 383.492188 265.21875 383.679688 C 265.273438 383.902344 265.136719 384.128906 264.914062 384.183594 C 264.878906 384.191406 264.847656 384.199219 264.8125 384.199219 "/>
<path fill-rule="nonzero" fill="rgb(96.862793%, 58.039856%, 11.764526%)" fill-opacity="1" d="M 274.738281 394.324219 C 274.640625 394.324219 274.542969 394.289062 274.464844 394.21875 C 274.292969 394.066406 274.273438 393.804688 274.425781 393.632812 C 277.605469 390.011719 278.886719 385.226562 277.933594 380.511719 C 277.886719 380.285156 278.035156 380.066406 278.261719 380.019531 C 278.484375 379.972656 278.707031 380.121094 278.75 380.34375 C 279.753906 385.320312 278.40625 390.363281 275.050781 394.179688 C 274.96875 394.273438 274.855469 394.324219 274.738281 394.324219 "/>
<path fill-rule="nonzero" fill="rgb(96.862793%, 58.039856%, 11.764526%)" fill-opacity="1" d="M 272.9375 393.707031 C 272.832031 393.707031 272.726562 393.667969 272.648438 393.589844 C 272.480469 393.425781 272.476562 393.164062 272.640625 393 C 273.917969 391.683594 274.90625 390.152344 275.574219 388.441406 C 275.65625 388.230469 275.898438 388.125 276.113281 388.207031 C 276.328125 388.292969 276.433594 388.53125 276.347656 388.746094 C 275.640625 390.558594 274.59375 392.183594 273.234375 393.582031 C 273.152344 393.664062 273.046875 393.707031 272.9375 393.707031 "/>
<path fill-rule="nonzero" fill="rgb(96.862793%, 58.039856%, 11.764526%)" fill-opacity="1" d="M 276.691406 394.699219 C 276.601562 394.699219 276.511719 394.671875 276.433594 394.609375 C 276.253906 394.46875 276.222656 394.207031 276.363281 394.023438 C 279.429688 390.097656 280.625 385.046875 279.640625 380.167969 L 279.617188 380.046875 C 279.421875 379.390625 278.757812 378.980469 278.074219 379.121094 C 277.414062 379.253906 276.964844 379.855469 277.007812 380.511719 L 277.042969 380.691406 C 277.433594 382.640625 277.425781 384.609375 277.011719 386.539062 C 276.964844 386.761719 276.742188 386.90625 276.515625 386.859375 C 276.292969 386.808594 276.148438 386.589844 276.195312 386.363281 C 276.558594 384.675781 276.59375 382.960938 276.300781 381.25 L 276.292969 381.253906 L 276.214844 380.855469 C 275.976562 379.683594 276.738281 378.539062 277.910156 378.300781 C 279.082031 378.0625 280.226562 378.828125 280.464844 380 L 280.539062 380.367188 L 280.527344 380.367188 C 281.429688 385.375 280.160156 390.515625 277.019531 394.539062 C 276.9375 394.644531 276.816406 394.699219 276.691406 394.699219 "/>
<path fill-rule="nonzero" fill="rgb(96.862793%, 58.039856%, 11.764526%)" fill-opacity="1" d="M 271.289062 392.878906 C 271.179688 392.878906 271.066406 392.835938 270.984375 392.746094 C 270.828125 392.578125 270.835938 392.316406 271.003906 392.15625 C 273.796875 389.546875 275.15625 385.734375 274.644531 381.960938 C 274.613281 381.730469 274.773438 381.523438 275.003906 381.488281 C 275.230469 381.460938 275.441406 381.617188 275.472656 381.847656 C 276.019531 385.890625 274.5625 389.972656 271.574219 392.765625 C 271.496094 392.84375 271.394531 392.878906 271.289062 392.878906 "/>
<path fill-rule="nonzero" fill="rgb(96.862793%, 58.039856%, 11.764526%)" fill-opacity="1" d="M 282.140625 383.914062 C 281.910156 383.914062 281.722656 383.726562 281.722656 383.5 C 281.71875 382.273438 281.59375 381.035156 281.351562 379.820312 L 281.316406 379.660156 C 281.128906 378.925781 280.679688 378.289062 280.042969 377.863281 C 279.355469 377.410156 278.539062 377.25 277.730469 377.410156 C 276.523438 377.65625 275.578125 378.59375 275.328125 379.800781 C 275.277344 380.027344 275.058594 380.171875 274.832031 380.125 C 274.609375 380.078125 274.464844 379.855469 274.511719 379.632812 C 274.832031 378.097656 276.03125 376.902344 277.566406 376.59375 C 278.589844 376.386719 279.632812 376.59375 280.503906 377.171875 C 281.371094 377.75 281.964844 378.632812 282.171875 379.65625 L 282.242188 380.007812 L 282.234375 380.011719 C 282.445312 381.164062 282.554688 382.335938 282.558594 383.496094 C 282.558594 383.726562 282.371094 383.914062 282.140625 383.914062 Z M 282.140625 383.914062 "/>
<path fill-rule="nonzero" fill="rgb(96.862793%, 58.039856%, 11.764526%)" fill-opacity="1" d="M 278.785156 394.789062 C 278.703125 394.789062 278.621094 394.765625 278.546875 394.714844 C 278.359375 394.585938 278.308594 394.328125 278.441406 394.136719 C 280.164062 391.613281 281.261719 388.683594 281.605469 385.664062 C 281.628906 385.433594 281.835938 385.269531 282.066406 385.296875 C 282.292969 385.320312 282.457031 385.527344 282.433594 385.757812 C 282.074219 388.910156 280.929688 391.972656 279.128906 394.605469 C 279.046875 394.726562 278.917969 394.789062 278.785156 394.789062 "/>
<path fill-rule="nonzero" fill="rgb(96.862793%, 58.039856%, 11.764526%)" fill-opacity="1" d="M 269.804688 391.875 C 269.6875 391.875 269.570312 391.824219 269.488281 391.730469 C 269.335938 391.554688 269.355469 391.292969 269.53125 391.140625 C 272.199219 388.828125 273.460938 385.269531 272.859375 381.804688 L 272.800781 381.546875 C 272.183594 378.488281 274.167969 375.503906 277.222656 374.886719 C 277.738281 374.78125 278.261719 374.75 278.78125 374.789062 C 279.011719 374.808594 279.179688 375.007812 279.164062 375.238281 C 279.144531 375.46875 278.949219 375.640625 278.714844 375.621094 C 278.273438 375.589844 277.824219 375.613281 277.386719 375.703125 C 274.851562 376.214844 273.183594 378.640625 273.578125 381.171875 L 273.625 381.378906 C 274.398438 385.222656 273.039062 389.203125 270.074219 391.773438 C 269.996094 391.839844 269.898438 391.875 269.804688 391.875 "/>
<path fill-rule="nonzero" fill="rgb(96.862793%, 58.039856%, 11.764526%)" fill-opacity="1" d="M 281.007812 394.535156 C 280.933594 394.535156 280.863281 394.515625 280.796875 394.476562 C 280.597656 394.363281 280.53125 394.105469 280.648438 393.90625 C 283.199219 389.554688 284.054688 384.429688 283.058594 379.476562 L 283.027344 379.320312 C 282.714844 378.003906 281.867188 376.878906 280.683594 376.21875 C 280.480469 376.105469 280.410156 375.851562 280.523438 375.648438 C 280.632812 375.449219 280.886719 375.375 281.089844 375.488281 C 282.535156 376.296875 283.550781 377.6875 283.878906 379.3125 L 283.945312 379.640625 L 283.941406 379.640625 C 284.875 384.691406 283.964844 389.894531 281.367188 394.332031 C 281.289062 394.460938 281.148438 394.535156 281.007812 394.535156 "/>
<path fill-rule="nonzero" fill="rgb(96.862793%, 58.039856%, 11.764526%)" fill-opacity="1" d="M 268.480469 390.707031 C 268.359375 390.707031 268.238281 390.65625 268.15625 390.554688 C 268.011719 390.378906 268.035156 390.113281 268.214844 389.96875 C 269.324219 389.058594 270.183594 387.871094 270.707031 386.53125 C 270.789062 386.316406 271.03125 386.210938 271.246094 386.292969 C 271.457031 386.378906 271.566406 386.617188 271.480469 386.835938 C 270.910156 388.308594 269.964844 389.613281 268.742188 390.613281 C 268.667969 390.675781 268.570312 390.707031 268.480469 390.707031 "/>
<path fill-rule="nonzero" fill="rgb(96.862793%, 58.039856%, 11.764526%)" fill-opacity="1" d="M 285.328125 387.628906 C 285.304688 387.628906 285.28125 387.625 285.261719 387.621094 C 285.03125 387.585938 284.878906 387.371094 284.917969 387.144531 C 285.351562 384.488281 285.304688 381.792969 284.765625 379.132812 L 284.742188 379.011719 C 283.976562 375.53125 280.546875 373.289062 277.042969 373.996094 C 273.570312 374.695312 271.289062 378.035156 271.867188 381.503906 L 271.917969 381.726562 C 272.101562 382.644531 272.148438 383.582031 272.046875 384.507812 C 272.023438 384.734375 271.820312 384.902344 271.589844 384.878906 C 271.359375 384.851562 271.195312 384.648438 271.21875 384.417969 C 271.300781 383.65625 271.277344 382.886719 271.144531 382.128906 L 271.09375 381.890625 C 270.285156 377.894531 272.882812 373.984375 276.878906 373.179688 C 280.871094 372.371094 284.777344 374.96875 285.585938 378.96875 L 285.636719 379.226562 L 285.632812 379.226562 C 286.144531 381.902344 286.179688 384.609375 285.738281 387.277344 C 285.707031 387.484375 285.527344 387.628906 285.328125 387.628906 "/>
<path fill-rule="nonzero" fill="rgb(96.862793%, 58.039856%, 11.764526%)" fill-opacity="1" d="M 283.339844 393.867188 C 283.277344 393.867188 283.214844 393.851562 283.15625 393.824219 C 282.949219 393.722656 282.863281 393.472656 282.964844 393.265625 C 283.589844 391.988281 284.089844 390.644531 284.457031 389.273438 C 284.515625 389.050781 284.746094 388.921875 284.96875 388.980469 C 285.191406 389.039062 285.320312 389.265625 285.261719 389.492188 C 284.882812 390.914062 284.359375 392.304688 283.714844 393.632812 C 283.640625 393.78125 283.492188 393.867188 283.339844 393.867188 "/>
<path fill-rule="nonzero" fill="rgb(96.862793%, 58.039856%, 11.764526%)" fill-opacity="1" d="M 285.765625 392.65625 C 285.714844 392.65625 285.664062 392.644531 285.617188 392.628906 C 285.402344 392.542969 285.292969 392.300781 285.375 392.089844 C 286.984375 387.878906 287.371094 383.3125 286.492188 378.875 L 286.476562 378.789062 C 286.234375 377.601562 285.757812 376.511719 285.050781 375.542969 C 284.914062 375.355469 284.957031 375.09375 285.144531 374.960938 C 285.328125 374.824219 285.589844 374.863281 285.726562 375.050781 C 286.472656 376.078125 286.988281 377.226562 287.261719 378.472656 L 287.292969 378.625 C 288.222656 383.242188 287.828125 388.003906 286.15625 392.386719 C 286.089844 392.550781 285.933594 392.65625 285.765625 392.65625 "/>
<path fill-rule="nonzero" fill="rgb(96.862793%, 58.039856%, 11.764526%)" fill-opacity="1" d="M 283.867188 374.101562 C 283.773438 374.101562 283.679688 374.070312 283.601562 374.007812 C 281.664062 372.417969 279.148438 371.792969 276.699219 372.289062 C 276.066406 372.414062 275.453125 372.613281 274.875 372.878906 C 274.664062 372.976562 274.417969 372.882812 274.320312 372.675781 C 274.226562 372.464844 274.316406 372.21875 274.527344 372.121094 C 275.164062 371.832031 275.839844 371.609375 276.535156 371.46875 C 279.230469 370.925781 282 371.617188 284.128906 373.363281 C 284.308594 373.507812 284.332031 373.769531 284.1875 373.949219 C 284.105469 374.046875 283.984375 374.101562 283.867188 374.101562 "/>
<path fill-rule="nonzero" fill="rgb(96.862793%, 58.039856%, 11.764526%)" fill-opacity="1" d="M 267.324219 389.398438 C 267.203125 389.398438 267.082031 389.34375 267 389.242188 C 266.855469 389.0625 266.882812 388.800781 267.0625 388.65625 C 268.929688 387.15625 269.828125 384.792969 269.429688 382.445312 L 269.386719 382.234375 C 268.710938 378.890625 269.9375 375.480469 272.585938 373.328125 C 272.765625 373.183594 273.027344 373.210938 273.171875 373.390625 C 273.316406 373.570312 273.289062 373.832031 273.109375 373.976562 C 270.765625 375.882812 269.644531 378.878906 270.160156 381.84375 L 270.210938 382.070312 C 270.757812 384.792969 269.753906 387.566406 267.585938 389.308594 C 267.507812 389.371094 267.414062 389.398438 267.324219 389.398438 "/>
<path fill-rule="nonzero" fill="rgb(96.862793%, 58.039856%, 11.764526%)" fill-opacity="1" d="M 266.339844 387.953125 C 266.222656 387.953125 266.105469 387.902344 266.023438 387.804688 C 265.875 387.628906 265.894531 387.367188 266.070312 387.21875 C 267.367188 386.117188 267.988281 384.421875 267.714844 382.753906 L 267.679688 382.582031 C 267.566406 382.015625 267.496094 381.433594 267.472656 380.859375 C 267.460938 380.632812 267.640625 380.4375 267.871094 380.425781 C 268.101562 380.414062 268.292969 380.597656 268.304688 380.828125 C 268.324219 381.28125 268.371094 381.738281 268.453125 382.1875 L 268.5 382.414062 C 268.90625 384.433594 268.183594 386.519531 266.609375 387.851562 C 266.53125 387.921875 266.433594 387.953125 266.339844 387.953125 "/>
<path fill-rule="nonzero" fill="rgb(96.862793%, 58.039856%, 11.764526%)" fill-opacity="1" d="M 288.828125 380.132812 C 288.625 380.132812 288.449219 379.984375 288.417969 379.777344 C 288.359375 379.398438 288.292969 379.015625 288.222656 378.632812 L 288.183594 378.445312 C 287.085938 373.011719 281.78125 369.484375 276.355469 370.578125 C 274.332031 370.988281 272.511719 371.988281 271.089844 373.476562 C 269.699219 374.929688 268.785156 376.738281 268.441406 378.710938 C 268.402344 378.9375 268.1875 379.089844 267.960938 379.050781 C 267.734375 379.011719 267.582031 378.792969 267.621094 378.566406 C 267.992188 376.433594 268.984375 374.472656 270.488281 372.898438 C 272.027344 371.289062 274 370.203125 276.1875 369.761719 C 281.964844 368.597656 287.609375 372.265625 288.933594 377.96875 L 288.9375 377.96875 L 289 378.277344 C 289.09375 378.734375 289.171875 379.199219 289.242188 379.652344 C 289.273438 379.882812 289.117188 380.09375 288.890625 380.128906 C 288.871094 380.132812 288.847656 380.132812 288.828125 380.132812 "/>
<path fill-rule="nonzero" fill="rgb(96.862793%, 58.039856%, 11.764526%)" fill-opacity="1" d="M 288.234375 390.671875 C 288.199219 390.671875 288.164062 390.667969 288.128906 390.65625 C 287.90625 390.597656 287.773438 390.371094 287.832031 390.148438 C 288.546875 387.46875 288.820312 384.707031 288.644531 381.9375 C 288.632812 381.710938 288.804688 381.511719 289.035156 381.496094 C 289.261719 381.484375 289.464844 381.65625 289.476562 381.886719 C 289.65625 384.742188 289.375 387.597656 288.636719 390.363281 C 288.589844 390.550781 288.417969 390.671875 288.234375 390.671875 "/>
<path fill-rule="nonzero" fill="rgb(96.862793%, 58.039856%, 11.764526%)" fill-opacity="1" d="M 265.519531 386.332031 C 265.417969 386.332031 265.316406 386.292969 265.234375 386.21875 C 265.066406 386.0625 265.054688 385.800781 265.210938 385.628906 C 265.855469 384.933594 266.144531 383.980469 266 383.054688 L 265.972656 382.925781 C 265.304688 379.621094 265.964844 376.253906 267.832031 373.441406 C 269.695312 370.636719 272.542969 368.722656 275.84375 368.054688 C 277.230469 367.773438 278.640625 367.726562 280.027344 367.917969 C 280.257812 367.945312 280.417969 368.15625 280.386719 368.386719 C 280.355469 368.613281 280.144531 368.773438 279.917969 368.742188 C 278.621094 368.566406 277.304688 368.609375 276.011719 368.871094 C 272.925781 369.496094 270.265625 371.28125 268.523438 373.90625 C 266.824219 376.46875 266.195312 379.523438 266.746094 382.542969 L 266.792969 382.757812 C 267.039062 383.988281 266.679688 385.273438 265.824219 386.195312 C 265.742188 386.285156 265.628906 386.332031 265.519531 386.332031 "/>
<path fill-rule="nonzero" fill="rgb(96.862793%, 58.039856%, 11.764526%)" fill-opacity="1" d="M 290.644531 387.402344 C 290.625 387.402344 290.609375 387.402344 290.589844 387.398438 C 290.363281 387.371094 290.203125 387.164062 290.230469 386.933594 C 290.585938 384.078125 290.488281 381.1875 289.941406 378.339844 L 289.886719 378.097656 C 289.042969 373.914062 285.996094 370.503906 281.925781 369.199219 C 281.707031 369.128906 281.585938 368.890625 281.65625 368.671875 C 281.726562 368.453125 281.960938 368.332031 282.179688 368.402344 C 286.421875 369.761719 289.628906 373.257812 290.628906 377.578125 L 290.632812 377.578125 L 290.707031 377.933594 C 291.316406 380.949219 291.433594 384.007812 291.054688 387.039062 C 291.03125 387.25 290.851562 387.402344 290.644531 387.402344 "/>
<g fill="rgb(20.783997%, 34.509277%, 58.039856%)" fill-opacity="1">
<use xlink:href="#glyph-2-5" x="294.5498" y="389.5902"/>
<use xlink:href="#glyph-2-6" x="313.325414" y="389.5902"/>
</g>
<g fill="rgb(20.783997%, 34.509277%, 58.039856%)" fill-opacity="1">
<use xlink:href="#glyph-2-7" x="331.444538" y="389.5902"/>
</g>
<g fill="rgb(20.783997%, 34.509277%, 58.039856%)" fill-opacity="1">
<use xlink:href="#glyph-2-8" x="350.430229" y="389.5902"/>
<use xlink:href="#glyph-2-9" x="369.914852" y="389.5902"/>
<use xlink:href="#glyph-2-10" x="377.661434" y="389.5902"/>
</g>
<g fill="rgb(20.783997%, 34.509277%, 58.039856%)" fill-opacity="1">
<use xlink:href="#glyph-2-7" x="392.182993" y="389.5902"/>
</g>
<path fill-rule="nonzero" fill="rgb(13.725281%, 12.156677%, 12.548828%)" fill-opacity="1" d="M 215.957031 575.265625 C 214.832031 575.265625 213.820312 574.472656 213.589844 573.324219 C 209.824219 554.632812 212.414062 535.808594 221.078125 518.875 C 221.6875 517.6875 223.144531 517.214844 224.335938 517.828125 C 225.523438 518.433594 225.996094 519.894531 225.386719 521.082031 C 217.222656 537.03125 214.785156 554.761719 218.332031 572.367188 C 218.597656 573.675781 217.75 574.953125 216.4375 575.21875 C 216.277344 575.25 216.117188 575.265625 215.957031 575.265625 "/>
<path fill-rule="nonzero" fill="rgb(13.725281%, 12.156677%, 12.548828%)" fill-opacity="1" d="M 229.929688 511.511719 C 229.4375 511.511719 228.9375 511.359375 228.507812 511.046875 C 227.429688 510.257812 227.191406 508.742188 227.980469 507.664062 C 240.285156 490.792969 258.335938 479.226562 278.8125 475.097656 C 296.984375 471.429688 315.359375 473.804688 331.957031 481.953125 C 333.15625 482.542969 333.648438 483.992188 333.0625 485.195312 C 332.472656 486.394531 331.023438 486.890625 329.824219 486.296875 C 314.191406 478.621094 296.882812 476.390625 279.769531 479.84375 C 260.480469 483.734375 243.476562 494.628906 231.886719 510.519531 C 231.414062 511.167969 230.675781 511.511719 229.929688 511.511719 "/>
<path fill-rule="nonzero" fill="rgb(13.725281%, 12.156677%, 12.548828%)" fill-opacity="1" d="M 374.605469 543.257812 C 373.476562 543.257812 372.464844 542.464844 372.234375 541.316406 C 368.238281 521.484375 356.929688 504.164062 340.386719 492.550781 C 339.292969 491.78125 339.03125 490.273438 339.796875 489.179688 C 340.5625 488.085938 342.070312 487.820312 343.167969 488.589844 C 360.726562 500.917969 372.734375 519.304688 376.976562 540.359375 C 377.242188 541.667969 376.394531 542.945312 375.085938 543.207031 C 374.921875 543.242188 374.761719 543.257812 374.605469 543.257812 "/>
<path fill-rule="nonzero" fill="rgb(13.725281%, 12.156677%, 12.548828%)" fill-opacity="1" d="M 376.246094 560.890625 L 376.214844 560.890625 C 374.863281 560.863281 373.800781 559.757812 373.828125 558.421875 C 373.9375 552.710938 373.417969 546.953125 372.277344 541.308594 C 372.015625 539.996094 372.863281 538.71875 374.171875 538.453125 C 375.484375 538.191406 376.757812 539.039062 377.019531 540.351562 C 378.226562 546.339844 378.78125 552.453125 378.664062 558.515625 C 378.640625 559.835938 377.5625 560.890625 376.246094 560.890625 "/>
<path fill-rule="nonzero" fill="rgb(13.725281%, 12.156677%, 12.548828%)" fill-opacity="1" d="M 216.777344 578.710938 C 215.691406 578.710938 214.703125 577.976562 214.429688 576.871094 C 214.140625 575.703125 213.875 574.507812 213.632812 573.316406 C 213.371094 572.003906 214.214844 570.730469 215.527344 570.464844 C 216.839844 570.199219 218.113281 571.046875 218.378906 572.359375 C 218.601562 573.484375 218.855469 574.609375 219.128906 575.710938 C 219.449219 577.007812 218.65625 578.320312 217.359375 578.640625 C 217.164062 578.691406 216.96875 578.710938 216.777344 578.710938 "/>
<path fill-rule="nonzero" fill="rgb(13.725281%, 12.156677%, 12.548828%)" fill-opacity="1" d="M 274.390625 637.496094 C 273.828125 637.496094 273.257812 637.296875 272.796875 636.890625 C 271.792969 636.011719 271.695312 634.480469 272.578125 633.476562 C 291.03125 612.457031 298.453125 584.695312 292.933594 557.316406 C 292.671875 556.003906 293.519531 554.726562 294.828125 554.464844 C 296.136719 554.195312 297.414062 555.046875 297.675781 556.359375 C 303.496094 585.234375 295.671875 614.507812 276.210938 636.671875 C 275.730469 637.214844 275.0625 637.496094 274.390625 637.496094 "/>
<path fill-rule="nonzero" fill="rgb(13.725281%, 12.156677%, 12.548828%)" fill-opacity="1" d="M 263.933594 633.910156 C 263.324219 633.910156 262.714844 633.679688 262.246094 633.222656 C 261.289062 632.289062 261.269531 630.753906 262.203125 629.796875 C 269.632812 622.171875 275.363281 613.277344 279.226562 603.363281 C 279.714844 602.117188 281.117188 601.5 282.359375 601.988281 C 283.605469 602.472656 284.222656 603.878906 283.734375 605.121094 C 279.632812 615.644531 273.550781 625.085938 265.664062 633.179688 C 265.191406 633.664062 264.5625 633.910156 263.933594 633.910156 "/>
<path fill-rule="nonzero" fill="rgb(13.725281%, 12.156677%, 12.548828%)" fill-opacity="1" d="M 285.71875 639.675781 C 285.199219 639.675781 284.675781 639.507812 284.230469 639.160156 C 283.179688 638.339844 282.992188 636.820312 283.816406 635.765625 C 301.621094 612.964844 308.558594 583.644531 302.851562 555.316406 L 302.707031 554.609375 C 301.574219 550.816406 297.707031 548.441406 293.753906 549.234375 C 289.917969 550.011719 287.3125 553.511719 287.550781 557.316406 L 287.761719 558.359375 C 290.042969 569.679688 289.980469 581.097656 287.582031 592.300781 C 287.300781 593.609375 286.015625 594.441406 284.710938 594.160156 C 283.40625 593.882812 282.574219 592.59375 282.851562 591.285156 C 284.949219 581.492188 285.148438 571.523438 283.449219 561.613281 L 283.40625 561.617188 L 282.949219 559.328125 C 281.574219 552.519531 285.992188 545.863281 292.796875 544.488281 C 299.601562 543.117188 306.253906 547.539062 307.625 554.347656 L 308.050781 556.46875 L 308 556.488281 C 313.226562 585.535156 305.859375 615.402344 287.628906 638.746094 C 287.152344 639.355469 286.4375 639.675781 285.71875 639.675781 "/>
<path fill-rule="nonzero" fill="rgb(13.725281%, 12.156677%, 12.548828%)" fill-opacity="1" d="M 254.371094 629.113281 C 253.726562 629.113281 253.082031 628.851562 252.605469 628.34375 C 251.691406 627.367188 251.742188 625.835938 252.71875 624.921875 C 268.914062 609.761719 276.8125 587.632812 273.84375 565.722656 C 273.664062 564.398438 274.59375 563.179688 275.917969 563 C 277.238281 562.820312 278.457031 563.75 278.640625 565.074219 C 281.816406 588.535156 273.363281 612.226562 256.023438 628.457031 C 255.558594 628.894531 254.964844 629.113281 254.371094 629.113281 "/>
<path fill-rule="nonzero" fill="rgb(13.725281%, 12.156677%, 12.548828%)" fill-opacity="1" d="M 317.355469 577.070312 C 316.023438 577.070312 314.9375 575.992188 314.9375 574.65625 C 314.917969 567.539062 314.1875 560.359375 312.765625 553.3125 L 312.582031 552.386719 C 311.484375 548.101562 308.878906 544.421875 305.167969 541.957031 C 301.195312 539.3125 296.433594 538.378906 291.753906 539.324219 C 284.738281 540.738281 279.261719 546.183594 277.796875 553.195312 C 277.527344 554.5 276.246094 555.339844 274.9375 555.070312 C 273.628906 554.796875 272.792969 553.511719 273.0625 552.203125 C 274.921875 543.296875 281.882812 536.375 290.800781 534.578125 C 296.742188 533.378906 302.796875 534.566406 307.84375 537.921875 C 312.894531 541.28125 316.335938 546.402344 317.53125 552.347656 L 317.945312 554.398438 L 317.902344 554.414062 C 319.125 561.105469 319.753906 567.902344 319.773438 574.644531 C 319.777344 575.980469 318.699219 577.066406 317.359375 577.070312 Z M 317.355469 577.070312 "/>
<path fill-rule="nonzero" fill="rgb(13.725281%, 12.156677%, 12.548828%)" fill-opacity="1" d="M 297.867188 640.191406 C 297.394531 640.191406 296.921875 640.054688 296.503906 639.769531 C 295.402344 639.011719 295.117188 637.507812 295.871094 636.40625 C 305.890625 621.753906 312.242188 604.746094 314.238281 587.214844 C 314.390625 585.886719 315.589844 584.933594 316.917969 585.082031 C 318.246094 585.234375 319.199219 586.433594 319.046875 587.761719 C 316.960938 606.074219 310.328125 623.839844 299.867188 639.136719 C 299.398438 639.824219 298.640625 640.191406 297.867188 640.191406 "/>
<path fill-rule="nonzero" fill="rgb(13.725281%, 12.156677%, 12.548828%)" fill-opacity="1" d="M 245.734375 623.273438 C 245.058594 623.273438 244.386719 622.992188 243.90625 622.4375 C 243.03125 621.425781 243.140625 619.898438 244.152344 619.023438 C 259.65625 605.585938 266.976562 584.941406 263.46875 564.820312 L 263.132812 563.328125 C 259.554688 545.585938 271.070312 528.242188 288.800781 524.664062 C 291.792969 524.058594 294.835938 523.875 297.847656 524.109375 C 299.183594 524.210938 300.175781 525.378906 300.074219 526.710938 C 299.96875 528.042969 298.8125 529.042969 297.472656 528.933594 C 294.90625 528.734375 292.308594 528.894531 289.757812 529.410156 C 275.050781 532.378906 265.359375 546.457031 267.652344 561.148438 L 267.929688 562.359375 C 272.421875 584.660156 264.523438 607.773438 247.320312 622.683594 C 246.859375 623.078125 246.296875 623.273438 245.734375 623.273438 "/>
<path fill-rule="nonzero" fill="rgb(13.725281%, 12.156677%, 12.548828%)" fill-opacity="1" d="M 310.769531 638.726562 C 310.355469 638.726562 309.933594 638.617188 309.546875 638.394531 C 308.394531 637.714844 308.007812 636.234375 308.683594 635.078125 C 323.503906 609.800781 328.476562 580.054688 322.683594 551.3125 L 322.5 550.40625 C 320.695312 542.761719 315.777344 536.230469 308.890625 532.390625 C 307.722656 531.738281 307.304688 530.265625 307.957031 529.097656 C 308.605469 527.929688 310.078125 527.511719 311.246094 528.164062 C 319.636719 532.84375 325.542969 540.933594 327.441406 550.351562 L 327.824219 552.265625 L 327.796875 552.277344 C 333.226562 581.585938 327.953125 611.785156 312.859375 637.53125 C 312.40625 638.296875 311.601562 638.726562 310.769531 638.726562 "/>
<path fill-rule="nonzero" fill="rgb(13.725281%, 12.156677%, 12.548828%)" fill-opacity="1" d="M 238.054688 616.503906 C 237.355469 616.503906 236.660156 616.203125 236.179688 615.617188 C 235.335938 614.585938 235.488281 613.058594 236.519531 612.210938 C 242.960938 606.933594 247.957031 600.035156 250.972656 592.265625 C 251.457031 591.019531 252.859375 590.402344 254.105469 590.886719 C 255.351562 591.367188 255.96875 592.769531 255.484375 594.019531 C 252.167969 602.566406 246.667969 610.152344 239.585938 615.957031 C 239.136719 616.324219 238.59375 616.503906 238.054688 616.503906 "/>
<path fill-rule="nonzero" fill="rgb(13.725281%, 12.156677%, 12.548828%)" fill-opacity="1" d="M 335.855469 598.628906 C 335.726562 598.628906 335.59375 598.617188 335.460938 598.597656 C 334.140625 598.378906 333.25 597.132812 333.46875 595.8125 C 336.003906 580.40625 335.710938 564.761719 332.597656 549.3125 L 332.457031 548.605469 C 327.996094 528.414062 308.101562 515.390625 287.761719 519.496094 C 267.609375 523.5625 254.375 542.945312 257.726562 563.082031 L 258.011719 564.359375 C 259.089844 569.703125 259.34375 575.136719 258.769531 580.507812 C 258.628906 581.835938 257.4375 582.804688 256.109375 582.65625 C 254.777344 582.515625 253.816406 581.320312 253.960938 579.992188 C 254.429688 575.574219 254.285156 571.109375 253.527344 566.699219 L 253.222656 565.324219 C 248.546875 542.117188 263.609375 519.429688 286.804688 514.75 C 309.996094 510.070312 332.671875 525.144531 337.347656 548.351562 L 337.648438 549.851562 L 337.636719 549.859375 C 340.585938 565.394531 340.792969 581.109375 338.242188 596.601562 C 338.046875 597.785156 337.019531 598.628906 335.855469 598.628906 "/>
<path fill-rule="nonzero" fill="rgb(13.725281%, 12.156677%, 12.548828%)" fill-opacity="1" d="M 324.316406 634.84375 C 323.960938 634.84375 323.597656 634.765625 323.257812 634.597656 C 322.054688 634.011719 321.558594 632.566406 322.140625 631.363281 C 325.757812 623.9375 328.667969 616.140625 330.796875 608.183594 C 331.144531 606.894531 332.472656 606.125 333.761719 606.472656 C 335.050781 606.816406 335.816406 608.144531 335.472656 609.4375 C 333.261719 617.691406 330.242188 625.78125 326.492188 633.484375 C 326.074219 634.34375 325.210938 634.84375 324.316406 634.84375 "/>
<path fill-rule="nonzero" fill="rgb(13.725281%, 12.156677%, 12.548828%)" fill-opacity="1" d="M 338.390625 627.800781 C 338.101562 627.800781 337.808594 627.75 337.523438 627.640625 C 336.277344 627.164062 335.652344 625.765625 336.128906 624.515625 C 345.46875 600.085938 347.710938 573.578125 342.617188 547.820312 L 342.511719 547.3125 C 341.125 540.433594 338.347656 534.09375 334.25 528.46875 C 333.464844 527.386719 333.703125 525.871094 334.78125 525.085938 C 335.863281 524.296875 337.375 524.535156 338.160156 525.617188 C 342.496094 531.570312 345.492188 538.25 347.074219 545.484375 L 347.082031 545.492188 L 347.257812 546.355469 C 352.664062 573.171875 350.375 600.796875 340.648438 626.246094 C 340.28125 627.210938 339.363281 627.800781 338.390625 627.800781 "/>
<path fill-rule="nonzero" fill="rgb(13.725281%, 12.156677%, 12.548828%)" fill-opacity="1" d="M 327.367188 520.109375 C 326.828125 520.109375 326.285156 519.925781 325.835938 519.558594 C 314.59375 510.347656 299.988281 506.710938 285.761719 509.582031 C 282.097656 510.320312 278.53125 511.476562 275.167969 513.023438 C 273.953125 513.578125 272.519531 513.046875 271.960938 511.832031 C 271.40625 510.617188 271.9375 509.175781 273.152344 508.621094 C 276.855469 506.921875 280.777344 505.652344 284.804688 504.835938 C 300.460938 501.675781 316.535156 505.679688 328.898438 515.816406 C 329.933594 516.660156 330.085938 518.1875 329.238281 519.21875 C 328.761719 519.804688 328.066406 520.109375 327.367188 520.109375 "/>
<path fill-rule="nonzero" fill="rgb(13.725281%, 12.156677%, 12.548828%)" fill-opacity="1" d="M 231.347656 608.910156 C 230.640625 608.910156 229.941406 608.597656 229.460938 608.003906 C 228.625 606.960938 228.792969 605.4375 229.832031 604.601562 C 240.675781 595.886719 245.875 582.160156 243.578125 568.535156 L 243.3125 567.324219 C 239.40625 547.921875 246.519531 528.113281 261.890625 515.625 C 262.925781 514.78125 264.449219 514.941406 265.292969 515.976562 C 266.132812 517.015625 265.976562 518.539062 264.9375 519.382812 C 251.316406 530.453125 244.828125 547.847656 247.8125 565.058594 L 248.09375 566.359375 C 251.28125 582.164062 245.445312 598.261719 232.863281 608.375 C 232.417969 608.734375 231.882812 608.910156 231.347656 608.910156 "/>
<path fill-rule="nonzero" fill="rgb(13.725281%, 12.156677%, 12.548828%)" fill-opacity="1" d="M 225.636719 600.511719 C 224.949219 600.511719 224.269531 600.222656 223.789062 599.65625 C 222.925781 598.636719 223.050781 597.109375 224.074219 596.242188 C 231.601562 589.859375 235.207031 580.011719 233.621094 570.332031 L 233.40625 569.324219 C 232.742188 566.035156 232.339844 562.679688 232.203125 559.34375 C 232.148438 558.007812 233.183594 556.878906 234.519531 556.824219 C 235.859375 556.761719 236.980469 557.808594 237.035156 559.148438 C 237.144531 561.78125 237.433594 564.4375 237.898438 567.050781 L 238.179688 568.359375 C 240.542969 580.09375 236.335938 592.191406 227.199219 599.9375 C 226.746094 600.324219 226.1875 600.511719 225.636719 600.511719 "/>
<path fill-rule="nonzero" fill="rgb(13.725281%, 12.156677%, 12.548828%)" fill-opacity="1" d="M 356.175781 555.117188 C 354.996094 555.117188 353.960938 554.253906 353.785156 553.054688 C 353.457031 550.851562 353.078125 548.621094 352.648438 546.410156 L 352.421875 545.3125 C 346.070312 513.789062 315.269531 493.3125 283.765625 499.667969 C 272.023438 502.039062 261.457031 507.847656 253.210938 516.472656 C 245.144531 524.902344 239.832031 535.414062 237.839844 546.863281 C 237.613281 548.179688 236.363281 549.0625 235.042969 548.832031 C 233.726562 548.601562 232.847656 547.351562 233.074219 546.03125 C 235.230469 533.632812 240.984375 522.253906 249.714844 513.125 C 258.652344 503.78125 270.09375 497.488281 282.808594 494.925781 C 316.324219 488.160156 349.105469 509.445312 356.777344 542.5625 L 356.800781 542.5625 L 357.171875 544.355469 C 357.707031 547.007812 358.175781 549.691406 358.570312 552.34375 C 358.765625 553.664062 357.855469 554.894531 356.53125 555.09375 C 356.410156 555.109375 356.292969 555.117188 356.175781 555.117188 "/>
<path fill-rule="nonzero" fill="rgb(13.725281%, 12.156677%, 12.548828%)" fill-opacity="1" d="M 352.726562 616.296875 C 352.519531 616.296875 352.3125 616.269531 352.101562 616.214844 C 350.8125 615.871094 350.042969 614.542969 350.386719 613.253906 C 354.535156 597.695312 356.121094 581.664062 355.109375 565.601562 C 355.023438 564.265625 356.035156 563.117188 357.371094 563.03125 C 358.699219 562.960938 359.851562 563.960938 359.9375 565.296875 C 360.980469 581.882812 359.34375 598.4375 355.0625 614.5 C 354.773438 615.582031 353.796875 616.296875 352.726562 616.296875 "/>
<path fill-rule="nonzero" fill="rgb(13.725281%, 12.156677%, 12.548828%)" fill-opacity="1" d="M 220.863281 591.09375 C 220.277344 591.09375 219.6875 590.878906 219.222656 590.445312 C 218.242188 589.539062 218.183594 588.007812 219.09375 587.027344 C 222.824219 582.996094 224.5 577.460938 223.65625 572.074219 L 223.5 571.324219 C 219.632812 552.136719 223.464844 532.59375 234.289062 516.289062 C 245.113281 499.988281 261.636719 488.878906 280.8125 485.011719 C 288.859375 483.386719 297.03125 483.117188 305.09375 484.207031 C 306.417969 484.386719 307.347656 485.605469 307.167969 486.929688 C 306.992188 488.253906 305.769531 489.183594 304.449219 489.003906 C 296.917969 487.984375 289.289062 488.238281 281.765625 489.757812 C 263.859375 493.367188 248.425781 503.742188 238.316406 518.96875 C 228.445312 533.835938 224.800781 551.59375 228 569.105469 L 228.261719 570.359375 C 229.703125 577.5 227.601562 584.960938 222.640625 590.316406 C 222.164062 590.832031 221.515625 591.09375 220.863281 591.09375 "/>
<path fill-rule="nonzero" fill="rgb(13.725281%, 12.156677%, 12.548828%)" fill-opacity="1" d="M 366.710938 597.320312 C 366.609375 597.320312 366.511719 597.3125 366.410156 597.300781 C 365.082031 597.132812 364.144531 595.925781 364.308594 594.597656 C 366.371094 578.015625 365.804688 561.246094 362.625 544.71875 L 362.328125 543.3125 C 357.429688 519.015625 339.71875 499.214844 316.109375 491.640625 C 314.835938 491.230469 314.132812 489.871094 314.542969 488.597656 C 314.949219 487.324219 316.3125 486.625 317.582031 487.03125 C 342.195312 494.925781 360.816406 515.222656 366.625 540.296875 L 366.65625 540.296875 L 367.089844 542.355469 C 370.613281 559.847656 371.292969 577.625 369.109375 595.199219 C 368.957031 596.421875 367.914062 597.320312 366.710938 597.320312 "/>
<g fill="rgb(13.725281%, 12.156677%, 12.548828%)" fill-opacity="1">
<use xlink:href="#glyph-2-0" x="186.4355" y="680.4867"/>
<use xlink:href="#glyph-2-1" x="194.891091" y="680.4867"/>
<use xlink:href="#glyph-2-2" x="205.605008" y="680.4867"/>
<use xlink:href="#glyph-2-3" x="225.352227" y="680.4867"/>
<use xlink:href="#glyph-2-4" x="242.578525" y="680.4867"/>
<use xlink:href="#glyph-2-0" x="265.424377" y="680.4867"/>
<use xlink:href="#glyph-2-0" x="273.879968" y="680.4867"/>
<use xlink:href="#glyph-2-0" x="282.335559" y="680.4867"/>
</g>
<path fill-rule="nonzero" fill="rgb(13.725281%, 12.156677%, 12.548828%)" fill-opacity="1" d="M 180.820312 670.015625 C 181.011719 668.898438 181.84375 667.363281 183.988281 667.363281 C 186.257812 667.363281 187.058594 668.929688 187.183594 670.015625 Z M 183.988281 663.558594 C 179.160156 663.558594 175.769531 667.171875 175.769531 671.648438 C 175.769531 676.667969 179.445312 679.769531 184.210938 679.769531 C 184.910156 679.769531 185.625 679.703125 186.328125 679.582031 L 186.328125 675.738281 C 185.753906 675.882812 185.191406 675.964844 184.753906 675.964844 C 182.515625 675.964844 181.175781 674.652344 180.886719 673.214844 L 191.886719 673.214844 L 191.886719 672.160156 C 191.886719 666.914062 188.558594 663.558594 183.988281 663.558594 "/>
<path fill-rule="nonzero" fill="rgb(13.725281%, 12.156677%, 12.548828%)" fill-opacity="1" d="M 267.730469 674.5 C 267.539062 674.5 267.363281 674.363281 267.324219 674.164062 C 266.675781 670.945312 267.121094 667.703125 268.613281 664.785156 C 268.71875 664.582031 268.96875 664.5 269.175781 664.605469 C 269.378906 664.710938 269.460938 664.960938 269.355469 665.164062 C 267.949219 667.914062 267.53125 670.96875 268.140625 674 C 268.1875 674.226562 268.042969 674.445312 267.816406 674.492188 C 267.789062 674.496094 267.757812 674.5 267.730469 674.5 "/>
<path fill-rule="nonzero" fill="rgb(13.725281%, 12.156677%, 12.548828%)" fill-opacity="1" d="M 270.140625 663.515625 C 270.054688 663.515625 269.96875 663.492188 269.894531 663.4375 C 269.707031 663.300781 269.667969 663.039062 269.804688 662.855469 C 271.921875 659.949219 275.035156 657.953125 278.558594 657.242188 C 281.691406 656.613281 284.855469 657.019531 287.714844 658.425781 C 287.921875 658.527344 288.007812 658.777344 287.90625 658.984375 C 287.804688 659.191406 287.554688 659.273438 287.347656 659.171875 C 284.65625 657.851562 281.671875 657.464844 278.726562 658.0625 C 275.402344 658.730469 272.472656 660.609375 270.476562 663.34375 C 270.394531 663.457031 270.269531 663.515625 270.140625 663.515625 "/>
<path fill-rule="nonzero" fill="rgb(13.725281%, 12.156677%, 12.548828%)" fill-opacity="1" d="M 295.0625 668.984375 C 294.867188 668.984375 294.695312 668.847656 294.65625 668.652344 C 293.964844 665.234375 292.019531 662.25 289.167969 660.25 C 288.980469 660.117188 288.933594 659.859375 289.066406 659.667969 C 289.199219 659.480469 289.460938 659.433594 289.648438 659.566406 C 292.671875 661.691406 294.742188 664.859375 295.472656 668.488281 C 295.515625 668.710938 295.371094 668.929688 295.144531 668.976562 C 295.117188 668.980469 295.089844 668.984375 295.0625 668.984375 "/>
<path fill-rule="nonzero" fill="rgb(13.725281%, 12.156677%, 12.548828%)" fill-opacity="1" d="M 295.347656 672.023438 L 295.339844 672.023438 C 295.109375 672.019531 294.925781 671.828125 294.929688 671.597656 C 294.949219 670.613281 294.859375 669.621094 294.660156 668.648438 C 294.617188 668.421875 294.761719 668.203125 294.988281 668.160156 C 295.214844 668.113281 295.433594 668.257812 295.480469 668.484375 C 295.6875 669.515625 295.785156 670.570312 295.761719 671.613281 C 295.757812 671.839844 295.574219 672.023438 295.347656 672.023438 "/>
<path fill-rule="nonzero" fill="rgb(13.725281%, 12.156677%, 12.548828%)" fill-opacity="1" d="M 267.875 675.09375 C 267.6875 675.09375 267.515625 674.96875 267.46875 674.777344 C 267.417969 674.574219 267.375 674.367188 267.332031 674.164062 C 267.285156 673.9375 267.433594 673.71875 267.65625 673.671875 C 267.882812 673.625 268.101562 673.773438 268.148438 674 C 268.1875 674.191406 268.230469 674.386719 268.277344 674.574219 C 268.332031 674.800781 268.195312 675.027344 267.976562 675.082031 C 267.941406 675.089844 267.90625 675.09375 267.875 675.09375 "/>
<path fill-rule="nonzero" fill="rgb(13.725281%, 12.156677%, 12.548828%)" fill-opacity="1" d="M 277.800781 685.21875 C 277.703125 685.21875 277.601562 685.1875 277.523438 685.117188 C 277.351562 684.964844 277.335938 684.699219 277.488281 684.527344 C 280.664062 680.90625 281.945312 676.125 280.992188 671.40625 C 280.949219 671.183594 281.09375 670.960938 281.320312 670.914062 C 281.542969 670.871094 281.765625 671.015625 281.808594 671.242188 C 282.8125 676.21875 281.464844 681.261719 278.113281 685.078125 C 278.03125 685.171875 277.914062 685.21875 277.800781 685.21875 "/>
<path fill-rule="nonzero" fill="rgb(13.725281%, 12.156677%, 12.548828%)" fill-opacity="1" d="M 275.996094 684.601562 C 275.894531 684.601562 275.785156 684.5625 275.707031 684.484375 C 275.542969 684.324219 275.539062 684.058594 275.699219 683.894531 C 276.980469 682.582031 277.964844 681.046875 278.632812 679.339844 C 278.714844 679.125 278.957031 679.019531 279.171875 679.105469 C 279.386719 679.1875 279.492188 679.429688 279.410156 679.644531 C 278.703125 681.457031 277.652344 683.082031 276.296875 684.476562 C 276.214844 684.5625 276.105469 684.601562 275.996094 684.601562 "/>
<path fill-rule="nonzero" fill="rgb(13.725281%, 12.156677%, 12.548828%)" fill-opacity="1" d="M 279.75 685.597656 C 279.660156 685.597656 279.570312 685.566406 279.492188 685.507812 C 279.3125 685.367188 279.28125 685.105469 279.421875 684.921875 C 282.488281 680.992188 283.6875 675.945312 282.703125 671.0625 L 282.675781 670.941406 C 282.480469 670.289062 281.816406 669.878906 281.132812 670.015625 C 280.472656 670.148438 280.023438 670.75 280.066406 671.40625 L 280.101562 671.585938 C 280.496094 673.535156 280.484375 675.503906 280.070312 677.433594 C 280.023438 677.660156 279.800781 677.804688 279.578125 677.753906 C 279.351562 677.707031 279.207031 677.484375 279.257812 677.261719 C 279.617188 675.574219 279.652344 673.855469 279.359375 672.148438 L 279.351562 672.148438 L 279.273438 671.753906 C 279.035156 670.582031 279.796875 669.433594 280.96875 669.199219 C 282.140625 668.960938 283.289062 669.722656 283.523438 670.898438 L 283.597656 671.261719 L 283.589844 671.265625 C 284.488281 676.269531 283.21875 681.414062 280.078125 685.4375 C 279.996094 685.539062 279.875 685.597656 279.75 685.597656 "/>
<path fill-rule="nonzero" fill="rgb(13.725281%, 12.156677%, 12.548828%)" fill-opacity="1" d="M 274.351562 683.777344 C 274.238281 683.777344 274.128906 683.730469 274.046875 683.644531 C 273.886719 683.476562 273.898438 683.210938 274.066406 683.054688 C 276.855469 680.441406 278.214844 676.628906 277.703125 672.855469 C 277.671875 672.628906 277.832031 672.417969 278.0625 672.386719 C 278.289062 672.355469 278.5 672.515625 278.53125 672.746094 C 279.078125 676.785156 277.621094 680.867188 274.632812 683.664062 C 274.554688 683.738281 274.453125 683.777344 274.351562 683.777344 "/>
<path fill-rule="nonzero" fill="rgb(13.725281%, 12.156677%, 12.548828%)" fill-opacity="1" d="M 285.199219 674.8125 C 284.972656 674.8125 284.785156 674.625 284.785156 674.394531 C 284.78125 673.167969 284.65625 671.929688 284.410156 670.71875 L 284.378906 670.558594 C 284.1875 669.820312 283.738281 669.1875 283.101562 668.761719 C 282.417969 668.304688 281.597656 668.144531 280.789062 668.308594 C 279.582031 668.550781 278.636719 669.488281 278.386719 670.699219 C 278.339844 670.921875 278.117188 671.066406 277.894531 671.019531 C 277.667969 670.972656 277.523438 670.75 277.570312 670.527344 C 277.890625 668.992188 279.089844 667.800781 280.625 667.492188 C 281.648438 667.285156 282.691406 667.488281 283.5625 668.066406 C 284.429688 668.644531 285.023438 669.527344 285.230469 670.550781 L 285.304688 670.90625 L 285.292969 670.90625 C 285.503906 672.0625 285.613281 673.230469 285.617188 674.394531 C 285.617188 674.625 285.429688 674.808594 285.203125 674.8125 Z M 285.199219 674.8125 "/>
<path fill-rule="nonzero" fill="rgb(13.725281%, 12.156677%, 12.548828%)" fill-opacity="1" d="M 281.84375 685.683594 C 281.761719 685.683594 281.679688 685.660156 281.609375 685.613281 C 281.417969 685.480469 281.371094 685.222656 281.5 685.03125 C 283.226562 682.507812 284.320312 679.578125 284.664062 676.558594 C 284.691406 676.328125 284.894531 676.164062 285.125 676.191406 C 285.355469 676.214844 285.519531 676.421875 285.492188 676.652344 C 285.132812 679.808594 283.988281 682.867188 282.1875 685.503906 C 282.105469 685.621094 281.976562 685.683594 281.84375 685.683594 "/>
<path fill-rule="nonzero" fill="rgb(13.725281%, 12.156677%, 12.548828%)" fill-opacity="1" d="M 272.863281 682.769531 C 272.746094 682.769531 272.628906 682.722656 272.546875 682.625 C 272.394531 682.453125 272.414062 682.1875 272.589844 682.039062 C 275.261719 679.722656 276.519531 676.167969 275.917969 672.699219 L 275.859375 672.441406 C 275.242188 669.386719 277.226562 666.398438 280.28125 665.78125 C 280.796875 665.679688 281.320312 665.648438 281.839844 665.6875 C 282.070312 665.707031 282.242188 665.90625 282.222656 666.132812 C 282.207031 666.363281 282.007812 666.539062 281.773438 666.519531 C 281.332031 666.484375 280.886719 666.511719 280.445312 666.597656 C 277.914062 667.113281 276.242188 669.539062 276.636719 672.066406 L 276.683594 672.277344 C 277.460938 676.117188 276.097656 680.097656 273.136719 682.667969 C 273.054688 682.738281 272.957031 682.769531 272.863281 682.769531 "/>
<path fill-rule="nonzero" fill="rgb(13.725281%, 12.156677%, 12.548828%)" fill-opacity="1" d="M 284.066406 685.433594 C 283.992188 685.433594 283.921875 685.414062 283.855469 685.375 C 283.65625 685.257812 283.589844 685.003906 283.707031 684.804688 C 286.257812 680.449219 287.117188 675.324219 286.117188 670.371094 L 286.085938 670.214844 C 285.777344 668.902344 284.929688 667.777344 283.742188 667.113281 C 283.539062 667 283.46875 666.746094 283.582031 666.546875 C 283.691406 666.34375 283.945312 666.273438 284.148438 666.382812 C 285.59375 667.191406 286.609375 668.585938 286.9375 670.207031 L 287.003906 670.535156 L 287 670.539062 C 287.933594 675.589844 287.027344 680.789062 284.425781 685.226562 C 284.347656 685.359375 284.210938 685.433594 284.066406 685.433594 "/>
<path fill-rule="nonzero" fill="rgb(13.725281%, 12.156677%, 12.548828%)" fill-opacity="1" d="M 271.539062 681.605469 C 271.417969 681.605469 271.296875 681.550781 271.214844 681.453125 C 271.070312 681.273438 271.097656 681.011719 271.273438 680.863281 C 272.382812 679.957031 273.246094 678.765625 273.765625 677.425781 C 273.847656 677.214844 274.089844 677.109375 274.304688 677.191406 C 274.519531 677.273438 274.625 677.515625 274.542969 677.730469 C 273.96875 679.203125 273.023438 680.507812 271.800781 681.507812 C 271.726562 681.574219 271.632812 681.605469 271.539062 681.605469 "/>
<path fill-rule="nonzero" fill="rgb(13.725281%, 12.156677%, 12.548828%)" fill-opacity="1" d="M 288.386719 678.523438 C 288.367188 678.523438 288.34375 678.523438 288.320312 678.519531 C 288.09375 678.480469 287.9375 678.265625 287.976562 678.039062 C 288.414062 675.382812 288.363281 672.691406 287.828125 670.03125 L 287.800781 669.90625 C 287.035156 666.429688 283.605469 664.183594 280.101562 664.890625 C 276.628906 665.59375 274.351562 668.929688 274.929688 672.402344 L 274.976562 672.621094 C 275.164062 673.542969 275.207031 674.476562 275.109375 675.402344 C 275.082031 675.632812 274.878906 675.796875 274.648438 675.773438 C 274.421875 675.75 274.253906 675.542969 274.28125 675.316406 C 274.359375 674.550781 274.335938 673.785156 274.203125 673.023438 L 274.152344 672.789062 C 273.347656 668.789062 275.941406 664.878906 279.9375 664.074219 C 283.933594 663.269531 287.839844 665.867188 288.644531 669.863281 L 288.699219 670.121094 L 288.695312 670.125 C 289.203125 672.796875 289.238281 675.507812 288.796875 678.175781 C 288.765625 678.378906 288.589844 678.523438 288.386719 678.523438 "/>
<path fill-rule="nonzero" fill="rgb(13.725281%, 12.156677%, 12.548828%)" fill-opacity="1" d="M 286.398438 684.765625 C 286.339844 684.765625 286.277344 684.75 286.21875 684.71875 C 286.011719 684.621094 285.925781 684.371094 286.023438 684.164062 C 286.648438 682.882812 287.148438 681.539062 287.515625 680.171875 C 287.574219 679.949219 287.804688 679.816406 288.027344 679.875 C 288.25 679.9375 288.378906 680.164062 288.320312 680.386719 C 287.941406 681.808594 287.421875 683.203125 286.773438 684.53125 C 286.703125 684.675781 286.554688 684.765625 286.398438 684.765625 "/>
<path fill-rule="nonzero" fill="rgb(13.725281%, 12.156677%, 12.548828%)" fill-opacity="1" d="M 288.824219 683.550781 C 288.773438 683.550781 288.722656 683.539062 288.675781 683.523438 C 288.460938 683.441406 288.351562 683.199219 288.433594 682.984375 C 290.042969 678.777344 290.429688 674.207031 289.554688 669.773438 L 289.535156 669.683594 C 289.296875 668.5 288.816406 667.40625 288.109375 666.4375 C 287.976562 666.25 288.015625 665.988281 288.203125 665.855469 C 288.386719 665.71875 288.648438 665.761719 288.785156 665.945312 C 289.53125 666.972656 290.046875 668.121094 290.320312 669.367188 L 290.320312 669.371094 L 290.351562 669.519531 C 291.28125 674.140625 290.890625 678.898438 289.214844 683.28125 C 289.148438 683.449219 288.992188 683.550781 288.824219 683.550781 "/>
<path fill-rule="nonzero" fill="rgb(13.725281%, 12.156677%, 12.548828%)" fill-opacity="1" d="M 286.925781 664.996094 C 286.832031 664.996094 286.738281 664.96875 286.660156 664.902344 C 284.726562 663.316406 282.207031 662.6875 279.757812 663.183594 C 279.125 663.3125 278.511719 663.511719 277.933594 663.777344 C 277.722656 663.875 277.476562 663.78125 277.378906 663.570312 C 277.285156 663.363281 277.375 663.113281 277.585938 663.019531 C 278.222656 662.726562 278.898438 662.507812 279.59375 662.367188 C 282.289062 661.820312 285.058594 662.511719 287.1875 664.257812 C 287.367188 664.402344 287.394531 664.667969 287.246094 664.84375 C 287.164062 664.945312 287.046875 664.996094 286.925781 664.996094 "/>
<path fill-rule="nonzero" fill="rgb(13.725281%, 12.156677%, 12.548828%)" fill-opacity="1" d="M 270.382812 680.296875 C 270.261719 680.296875 270.140625 680.242188 270.058594 680.140625 C 269.914062 679.960938 269.945312 679.695312 270.121094 679.554688 C 271.992188 678.050781 272.886719 675.6875 272.492188 673.339844 L 272.445312 673.132812 C 271.769531 669.789062 272.996094 666.375 275.644531 664.226562 C 275.824219 664.078125 276.085938 664.109375 276.230469 664.285156 C 276.375 664.464844 276.347656 664.726562 276.171875 664.871094 C 273.824219 666.777344 272.707031 669.777344 273.21875 672.742188 L 273.269531 672.964844 C 273.816406 675.6875 272.8125 678.460938 270.644531 680.203125 C 270.570312 680.265625 270.476562 680.296875 270.382812 680.296875 "/>
<path fill-rule="nonzero" fill="rgb(13.725281%, 12.156677%, 12.548828%)" fill-opacity="1" d="M 269.398438 678.847656 C 269.28125 678.847656 269.164062 678.796875 269.082031 678.703125 C 268.933594 678.527344 268.953125 678.261719 269.128906 678.113281 C 270.425781 677.015625 271.046875 675.316406 270.773438 673.648438 L 270.738281 673.476562 C 270.625 672.910156 270.554688 672.332031 270.53125 671.757812 C 270.519531 671.527344 270.699219 671.332031 270.929688 671.324219 C 271.160156 671.3125 271.355469 671.492188 271.363281 671.722656 C 271.382812 672.175781 271.433594 672.632812 271.511719 673.085938 L 271.558594 673.3125 C 271.96875 675.332031 271.242188 677.414062 269.667969 678.75 C 269.589844 678.816406 269.496094 678.847656 269.398438 678.847656 "/>
<path fill-rule="nonzero" fill="rgb(13.725281%, 12.156677%, 12.548828%)" fill-opacity="1" d="M 291.886719 671.03125 C 291.683594 671.03125 291.507812 670.878906 291.476562 670.671875 C 291.417969 670.292969 291.355469 669.910156 291.28125 669.53125 L 291.242188 669.339844 C 290.148438 663.910156 284.839844 660.382812 279.414062 661.476562 C 277.390625 661.882812 275.570312 662.886719 274.148438 664.371094 C 272.761719 665.824219 271.84375 667.632812 271.503906 669.605469 C 271.460938 669.832031 271.246094 669.984375 271.019531 669.945312 C 270.792969 669.90625 270.640625 669.691406 270.679688 669.464844 C 271.050781 667.328125 272.042969 665.367188 273.546875 663.796875 C 275.085938 662.183594 277.058594 661.101562 279.25 660.660156 C 285.023438 659.496094 290.671875 663.160156 291.992188 668.867188 L 291.996094 668.867188 L 292.058594 669.175781 C 292.152344 669.632812 292.234375 670.09375 292.300781 670.550781 C 292.335938 670.777344 292.175781 670.992188 291.949219 671.023438 C 291.929688 671.027344 291.910156 671.03125 291.886719 671.03125 "/>
<path fill-rule="nonzero" fill="rgb(13.725281%, 12.156677%, 12.548828%)" fill-opacity="1" d="M 291.292969 681.570312 C 291.257812 681.570312 291.222656 681.5625 291.1875 681.554688 C 290.964844 681.496094 290.832031 681.265625 290.890625 681.042969 C 291.605469 678.363281 291.878906 675.601562 291.703125 672.835938 C 291.691406 672.605469 291.863281 672.40625 292.09375 672.390625 C 292.324219 672.378906 292.523438 672.550781 292.535156 672.78125 C 292.714844 675.640625 292.433594 678.492188 291.695312 681.257812 C 291.648438 681.445312 291.480469 681.570312 291.292969 681.570312 "/>
<path fill-rule="nonzero" fill="rgb(13.725281%, 12.156677%, 12.548828%)" fill-opacity="1" d="M 268.578125 677.226562 C 268.476562 677.226562 268.375 677.191406 268.292969 677.117188 C 268.125 676.957031 268.117188 676.695312 268.273438 676.527344 C 268.914062 675.832031 269.203125 674.878906 269.058594 673.949219 L 269.03125 673.820312 C 268.363281 670.515625 269.023438 667.148438 270.890625 664.339844 C 272.753906 661.53125 275.601562 659.617188 278.90625 658.953125 C 280.292969 658.671875 281.699219 658.625 283.089844 658.8125 C 283.316406 658.84375 283.476562 659.054688 283.445312 659.28125 C 283.414062 659.507812 283.203125 659.667969 282.976562 659.636719 C 281.679688 659.464844 280.363281 659.507812 279.070312 659.769531 C 275.984375 660.390625 273.324219 662.179688 271.585938 664.800781 C 269.882812 667.363281 269.253906 670.421875 269.808594 673.4375 L 269.851562 673.65625 C 270.101562 674.882812 269.738281 676.167969 268.882812 677.09375 C 268.800781 677.179688 268.691406 677.226562 268.578125 677.226562 "/>
<path fill-rule="nonzero" fill="rgb(13.725281%, 12.156677%, 12.548828%)" fill-opacity="1" d="M 293.703125 678.300781 C 293.6875 678.300781 293.667969 678.296875 293.652344 678.296875 C 293.421875 678.269531 293.261719 678.058594 293.289062 677.828125 C 293.644531 674.972656 293.546875 672.082031 293 669.238281 L 292.949219 668.996094 C 292.105469 664.808594 289.054688 661.398438 284.984375 660.09375 C 284.765625 660.023438 284.644531 659.789062 284.714844 659.570312 C 284.785156 659.351562 285.019531 659.230469 285.238281 659.300781 C 289.480469 660.660156 292.6875 664.15625 293.6875 668.476562 L 293.691406 668.476562 L 293.769531 668.828125 C 294.375 671.84375 294.492188 674.90625 294.117188 677.933594 C 294.089844 678.144531 293.910156 678.300781 293.703125 678.300781 "/>
<g fill="rgb(13.725281%, 12.156677%, 12.548828%)" fill-opacity="1">
<use xlink:href="#glyph-2-5" x="297.6094" y="680.4867"/>
<use xlink:href="#glyph-2-6" x="316.385014" y="680.4867"/>
</g>
<g fill="rgb(13.725281%, 12.156677%, 12.548828%)" fill-opacity="1">
<use xlink:href="#glyph-2-7" x="334.504138" y="680.4867"/>
</g>
<g fill="rgb(13.725281%, 12.156677%, 12.548828%)" fill-opacity="1">
<use xlink:href="#glyph-2-8" x="353.489829" y="680.4867"/>
<use xlink:href="#glyph-2-9" x="372.974452" y="680.4867"/>
<use xlink:href="#glyph-2-10" x="380.721034" y="680.4867"/>
</g>
<g fill="rgb(13.725281%, 12.156677%, 12.548828%)" fill-opacity="1">
<use xlink:href="#glyph-2-7" x="395.242593" y="680.4867"/>
</g>
<path fill="none" stroke-width="0.5" stroke-linecap="butt" stroke-linejoin="miter" stroke="rgb(65.490723%, 66.275024%, 67.451477%)" stroke-opacity="1" stroke-miterlimit="10" d="M -0.00159375 -0.001875 L 204.271844 -0.001875 " transform="matrix(1, 0, 0, -1, 203.193, 473.42)"/>
<path fill="none" stroke-width="0.5" stroke-linecap="butt" stroke-linejoin="miter" stroke="rgb(65.490723%, 66.275024%, 67.451477%)" stroke-opacity="1" stroke-miterlimit="10" d="M 0.0013375 0.00009375 L 204.270869 0.00009375 " transform="matrix(1, 0, 0, -1, 188.7096, 640.1915)"/>
<path fill="none" stroke-width="0.553" stroke-linecap="butt" stroke-linejoin="miter" stroke="rgb(65.490723%, 66.275024%, 67.451477%)" stroke-opacity="1" stroke-miterlimit="10" d="M 0.0013375 0.001075 L 249.6654 0.001075 " transform="matrix(1, 0, 0, -1, 188.7096, 656.9542)"/>
<path fill="none" stroke-width="0.553" stroke-linecap="butt" stroke-linejoin="miter" stroke="rgb(65.490723%, 66.275024%, 67.451477%)" stroke-opacity="1" stroke-miterlimit="10" d="M 0.0013375 -0.00185625 L 249.6654 -0.00185625 " transform="matrix(1, 0, 0, -1, 188.7096, 685.5958)"/>
<path fill="none" stroke-width="0.381" stroke-linecap="butt" stroke-linejoin="miter" stroke="rgb(65.490723%, 66.275024%, 67.451477%)" stroke-opacity="1" stroke-miterlimit="10" d="M 0.00035625 -0.0009125 L 0.00035625 -246.254819 " transform="matrix(1, 0, 0, -1, 211.9098, 456.2569)"/>
<path fill="none" stroke-width="0.381" stroke-linecap="butt" stroke-linejoin="miter" stroke="rgb(65.490723%, 66.275024%, 67.451477%)" stroke-opacity="1" stroke-miterlimit="10" d="M -0.0016125 -0.0009125 L -0.0016125 -246.254819 " transform="matrix(1, 0, 0, -1, 378.6813, 456.2569)"/>
<path fill="none" stroke-width="0.381" stroke-linecap="butt" stroke-linejoin="miter" stroke="rgb(65.490723%, 66.275024%, 67.451477%)" stroke-opacity="1" stroke-miterlimit="10" d="M -0.0006 0.001075 L -0.0006 -28.729394 " transform="matrix(1, 0, 0, -1, 417.8756, 656.9542)"/>
<g fill="rgb(65.490723%, 66.275024%, 67.451477%)" fill-opacity="1">
<use xlink:href="#glyph-3-0" x="424.8452" y="673.6644"/>
</g>
<g fill="rgb(65.490723%, 66.275024%, 67.451477%)" fill-opacity="1">
<use xlink:href="#glyph-3-1" x="385.5962" y="550.4154"/>
<use xlink:href="#glyph-3-2" x="390.2372" y="550.4154"/>
<use xlink:href="#glyph-3-0" x="394.3392" y="550.4154"/>
</g>
<g fill="rgb(57.647705%, 58.432007%, 59.608459%)" fill-opacity="1">
<use xlink:href="#glyph-4-0" x="34.3599" y="133.5902"/>
<use xlink:href="#glyph-4-1" x="41.9599" y="133.5902"/>
<use xlink:href="#glyph-4-2" x="48.2999" y="133.5902"/>
<use xlink:href="#glyph-4-3" x="54.9899" y="133.5902"/>
<use xlink:href="#glyph-4-4" x="61.5899" y="133.5902"/>
<use xlink:href="#glyph-4-5" x="63.8799" y="133.5902"/>
</g>
<g fill="rgb(57.647705%, 58.432007%, 59.608459%)" fill-opacity="1">
<use xlink:href="#glyph-4-6" x="70.6189" y="133.5902"/>
<use xlink:href="#glyph-4-7" x="77.7389" y="133.5902"/>
<use xlink:href="#glyph-4-8" x="83.6489" y="133.5902"/>
<use xlink:href="#glyph-4-4" x="91.3289" y="133.5902"/>
</g>
</svg>
